<?xml version="1.0" encoding="UTF-8"?>
<svg version="1.1" viewBox="0 0 900 900" width="1280" height="1280" xmlns="http://www.w3.org/2000/svg">
<path transform="translate(0)" d="m0 0h900v900h-900z" fill="#EC6900"/>
<path transform="translate(0)" d="m0 0h900v900h-900zm154 49-1 13 1 85h-85l-1 1v689l1 1h56l621-1 1-97h85v-689l-1-1-74-1z" fill="#FFFEFD"/>
<path transform="translate(69,147)" d="m0 0h84l1 10v518l1 64 582 1 10 1-1 96-670 1h-7l-1-1v-689z" fill="#009697"/>
<path transform="translate(181,404)" d="m0 0h200l1 1 1 42-1 1-72 1v205h-57l-1-1v-204h-71l-1-2v-42z" fill="#FFFEFD"/>
<path transform="translate(356,469)" d="m0 0h62l16 23 13 19 8 11 3-1 15-20 14-19 9-12 1-1h60l-2 4-20 25-9 11-11 14-14 17-13 17 1 4 14 18 13 17 32 42 8 10 3 5-2 1h-58l-6-5-8-12-12-17-14-20-2-3-4 1-10 14-14 18-18 24h-59v-4l9-10 10-13 11-14 13-16 13-17 12-15 3-6-12-16-20-26-14-18-21-28z" fill="#FFFEFD"/>
<path transform="translate(69,147)" d="m0 0h84l1 10v401l-1 173h-1l-1-577-3-5h-4l-2 2-5-1-4-1h-36l-10 1h-6l-5 5-1 7v267l1 4-1 14 1 23-1 13v36l1 169v60l-1 4v19l1 5v50l2 5 4 1 1 2 3 1h641 3 5l1-3h2l2-6 1-21v-22l-1-34 6-3v91l-670 1h-7l-1-1v-689z" fill="#008993"/>
<path transform="translate(69,147)" d="m0 0h84l1 10v401l-1 173h-1l-1-577-3-5h-4l-2 2-5-1-4-1h-36l-10 1v-2h-18z" fill="#008C94"/>
<path transform="translate(69,147)" d="m0 0h64v1l-36 1-10 1v-2h-18z" fill="#008B94"/>
</svg>
