<?xml version="1.0" encoding="UTF-8"?>
<svg version="1.1" viewBox="0 0 2000 2000" width="1280" height="1280" xmlns="http://www.w3.org/2000/svg">
<path transform="translate(1485,487)" d="m0 0 5 1 3 3 1 4v513l-2 7-5 4-15 8-14 8-20 12-8 4-15 9-11 6-13 8-8 4-20 12-22 13-24 14-13 7-24 14-16 9-19 11-16 9-14 8-17 10-7 4-20 12-20 11-17 10-15 9-10 5-15 9-23 13-21 12-11 7h-5l-3-3-1-29v-489l3-6 7-6 13-8 14-8 11-6 13-8 15-9 15-8 9-6 12-6 13-8 16-9 13-8 14-8 23-13 14-8 20-12 23-13 13-7 9-6 14-7 11-7 13-7 9-6 12-6 14-9 13-7 16-10 11-6 16-9 19-11 13-7 9-6 11-6z" fill="#68B742"/>
<path transform="translate(502,487)" d="m0 0 5 1 36 20 22 13 10 6 16 9 21 12 45 26 24 14 18 10 42 24 22 13 21 12 27 16 25 14 24 14 20 11 24 14 28 16 17 10 8 6 5 6v520l-6 4-4-1-14-8-10-6-21-12-23-13-14-8-20-12-16-9-26-15-27-16-18-10-16-9-23-13-22-13-10-6-26-15-35-20-29-17-46-26-34-20-16-9-5-4v-527z" fill="#3F4747"/>
<path transform="translate(992,158)" d="m0 0h7l8 4 17 10 21 12 20 12 20 11 24 14 25 14 15 9 49 28 24 14 26 15 25 14 24 14 26 15 22 13 26 15 19 11 35 20 10 6 16 9 2 5-7 6-17 9-17 10-23 13-52 30-21 12-24 14-19 11-21 12-26 15-14 8-17 10-16 9-19 11-29 17-24 14-20 11-24 14-28 16-19 11-16 9h-9l-20-11-15-9-25-14-28-16-24-14-26-15-23-13-15-9-19-11-18-10-24-14-21-12-26-15-11-6-35-21-11-6-20-11-15-9-16-9-24-14-26-15-10-7v-4l8-6 19-11 16-9 21-12 52-30 24-14 16-9 25-15 18-10 14-8 17-10 23-13 21-12 24-14 21-12 24-14 19-11 18-10 19-11 18-11 24-13 10-6z" fill="#3F4747"/>
<path transform="translate(1026,1332)" d="m0 0h21l14 3 21 1 11 2 9 4 10 2 20 7 21 11 15 10 13 10 10 9 14 14 11 14 6 8 13 22 9 20 6 15v6l7 17 1 21 2 7 2 16 1 32-2 7-3 3-3 1h-367l1 13 8 27 9 20 10 17 13 15 11 11 16 12 19 10 12 5 16 4 11 3h50l10-1 7-1 9-4 10-2 10-5 11-6 11-7 13-11 7-8 7-11 9-12 5-4 2-1h63l9 2-1 5-4 11-5 9-10 17-7 10-9 12-9 10-15 15-24 18-14 8-15 7-17 6-9 3-9 1-19 5h-78l-20-6h-8l-16-6-10-4-12-5-16-9-15-10-14-11-22-22-7-8-8-11-10-16-8-14-8-18-3-10-4-11-3-16-3-11-1-8v-73l1-5 1-8 4-9 1-15 7-17 7-18 12-22 13-19 11-12 7-8 8-7 8-8 20-14 15-9 16-7 10-3 4-3 16-3 6-3 10-2 21-1zm-2 67-16 3-13 1-9 5-10 2-17 9-13 9-14 12-7 7-9 12-8 13-8 16-5 12-5 19-1 7 4 1h285l5-2 1-7-2-9-5-14-5-12-9-17-12-16-13-14-17-13-10-6-18-8-16-6-19-2-6-1z" fill="#3F4747"/>
<path transform="translate(1529,1332)" d="m0 0h19l9 2 4 1 24 1 13 4 19 5 22 9 18 10 15 10 14 11 12 11 10 11 10 13 10 15 9 15 7 16 7 21 2 8 4 11 1 18 3 14 1 8 1 3v31l-3 20-2 8-1 18-5 14-2 10-8 20-12 23-10 16-11 14-10 11-5 5-12 11-16 12-15 9-23 11-25 9-5-1-14 5-12 2h-71l-12-3-9-3h-10l-9-5-11-3-11-5-16-8-13-8-28-22-12-13-11-14-7-10-9-15-8-15-8-21-5-13-1-10-5-17-1-5v-71l2-22 5-11v-10l5-11 3-11 11-24 10-18 10-13 11-14 14-14 8-7 8-6 18-12 23-12 14-5 7-3 11-2 6-3 10-2 23-1zm-6 67-6 2-13 1-12 2-9 4-11 4-13 7-15 11-12 11-9 10-8 11-11 19-8 20-4 15-3 7-1 23v47l1 14 8 28 13 27 12 17 11 12 12 12 17 11 23 11 11 2 10 4 39 1 20-1 11-2 10-4 10-2 19-10 12-8 11-9 12-12 10-13 10-17 7-15 7-21 3-19 3-14 1-13v-18l-2-11-4-21-1-12-4-7-3-11-8-16-8-14-11-14-19-19-14-10-17-9-21-7-36-4z" fill="#3F4747"/>
<path transform="translate(254,1332)" d="m0 0h19l12 3 26 1 17 6 12 2 12 5 20 9 18 10 14 10 13 11 17 17 10 13 13 20 10 19 6 14 1 7-2 4-8 2h-60l-5-3-5-6-7-14-8-11-11-13-8-8-14-11-17-9-13-5-10-2-16-3h-30l-3 1-17 1-14 2-10 4-11 4-17 9-12 8-13 11-6 5-11 14-9 13-10 19-7 20-3 9-1 15-1 5-1 14-1 10v18l1 3 3 27 9 26 12 23 12 16 9 10 6 7 17 13 18 10 16 7 10 1 13 5 5 1h54l12-3 17-6 19-10 11-8 21-21 11-18 8-14 6-5 2-1h58l8 2 3 5-2 9-7 16-8 16-8 12-12 16-9 11-13 13-16 12-20 13-14 7-14 6-13 4-7 3-13 2-9 2-9 3-71 1-9-2-13-4-3-1h-10l-12-6-10-3-21-11-16-10-13-10-10-9-16-16-11-14-9-13-9-15-7-14-11-28-1-9-5-14-1-14-1-3v-14l-2-5v-31l2-9v-11l1-4 1-15 5-15 2-10 8-21 12-25 7-11 8-12 8-10 7-7 7-8 7-7 8-7 14-10 14-9 14-8 11-4 15-6 16-4 11-3 22-1 7-2z" fill="#3F4747"/>
<path transform="translate(776,1332)" d="m0 0h6l5 4 3 8-1 5v19l1 6-1 3v7l1 3v8l-4 9-4 3h-7l-7-1-2 1-12 2h-12l-9 3-12 5-19 10-13 10-11 9-8 9-10 13-13 21-9 18-4 12-2 5-4 17-3 9v11l-1 6-1 218-3 4-3 1h-63l-3-3-1-3v-384l1-57 2-3 26-1h27l11 1 6 7v66l-1 6 3 6 3-1 12-20 9-11 18-18 13-10 14-9 23-11 4-2 9-2 4-3 9-2 20-1z" fill="#3F4747"/>
<path transform="translate(254,1332)" d="m0 0h19l12 3 26 1 17 6 12 2 12 5 20 9 18 10 14 10 13 11 17 17 10 13 13 20 10 19 6 14 1 7-2 4-8 2h-60l-5-3-5-6-7-14-8-11-11-13-8-8-14-11-17-9-13-5-10-2-16-3h-30l-3 1-17 1-14 2-10 4-11 4-17 9-12 8-13 11-6 5-11 14-9 13-10 19-7 20-3 9-1 15-1 5-1 14-1 10v18l1 3 3 27 9 26 12 23 12 16 9 10 6 7 17 13 18 10 16 7 10 1 13 5 5 1h54l12-3 17-6 19-10 11-8 21-21 11-18 8-14 6-5 2-1h58l8 2v2h-69l-11 20-11 16-12 13-3 3h-2v2l-10 8-14 9-15 7-16 5-19 3h-35l-19-3-18-5-14-5-19-10-12-9-14-12-13-15-6-8-10-15-7-14-6-16-5-23-2-15-1-13v-13l2-20 5-27 7-20 10-19 12-17 11-12 8-8 11-9 10-7 14-8 18-8 9-3 30-5h34l22 4 14 5 20 10 14 10 12 11 11 12 9 13 10 18 70 1-7-17-11-23-9-15-13-17-12-13-11-10-16-12-13-8-14-7-26-10-24-6-24-3-9-1h-39l-20 2-23 5-21 6-19 8-18 10-14 10-15 13-9 9-1 2h-2l-2 4-11 13-11 18-10 18-7 16-8 26-4 18-2 14-1 17v40l2 22 3 17 6 21 8 21 8 17 9 15 9 12 13 15 8 9 8 7 11 10 12 9 18 10 23 10 16 5 19 5 12 1h63l15-2 25-5 30-11 21-11 14-10 14-11 13-12 11-13 12-17 11-21 8-18 4-12 2-1 1 5-3 10-9 20-10 17-9 12-10 13-9 10-9 9-16 12-20 13-14 7-14 6-13 4-7 3-13 2-9 2-9 3-71 1-9-2-13-4-3-1h-10l-12-6-10-3-21-11-16-10-13-10-10-9-16-16-11-14-9-13-9-15-7-14-11-28-1-9-5-14-1-14-1-3v-14l-2-5v-31l2-9v-11l1-4 1-15 5-15 2-10 8-21 12-25 7-11 8-12 8-10 7-7 7-8 7-7 8-7 14-10 14-9 14-8 11-4 15-6 16-4 11-3 22-1 7-2z" fill="#AAADAB"/>
<path transform="translate(1026,1332)" d="m0 0h21l14 3 21 1 11 2 9 4 10 2 20 7 21 11 15 10 13 10 10 9 14 14 11 14 6 8 13 22 9 20 6 15v6l7 17 1 21 2 7 2 16 1 32-2 7-3 3-3 1h-367l1 13 8 27 9 20 10 17 13 15 11 11 16 12 19 10 12 5 16 4 11 3h50l10-1 7-1 9-4 10-2 10-5 11-6 11-7 13-11 7-8 7-11 9-12 5-4 2-1h63l9 2-1 5-4 11-5 9-10 17-7 10-9 12-9 10-15 15-24 18-14 8-15 7-17 6-9 3-9 1-19 5h-78l-20-6h-8l-16-6-10-4-12-5-16-9-15-10-14-11-22-22-7-8-8-11-10-16-8-14-8-18-3-10-4-11-3-16-3-11-1-8v-73l1-5 1-8 4-9 1-15 7-17 7-18 12-22 13-19 11-12 7-8 8-7 8-8 20-14 15-9 16-7 10-3 4-3 16-3 6-3 10-2 21-1zm-7 5-28 3-29 6-25 10-14 7-18 12-14 12-8 7-16 16-10 13-10 15-11 22-9 25-6 25-3 17-1 20v21l1 32 3 20 7 27 6 16 9 19 14 23 8 10 9 10 7 8 8 8 22 18 15 9 16 8 26 10 22 5 24 3h60l23-3 18-4 18-7 14-6 18-11 12-9 11-9 12-11 12-14 11-16 11-19 8-16 2-7-38-1h-27l-7 1-7 8-9 14-8 10-9 9-18 12-16 8-24 8-24 3h-35l-22-4-17-5-20-9-15-10-13-11-11-11-9-11-7-10-9-17-6-15-7-23-1-5v-8l3-2 5-1h280l84-1 1-2v-31l-4-37-4-22-4-15-4-12-8-19-11-20-3-4-4-7-7-8-8-10-12-13-14-11-12-9-11-7-15-8-24-9-19-5-25-4-11-1z" fill="#A9ACAA"/>
<path transform="translate(776,1332)" d="m0 0h6l5 4 3 8-1 5v19l1 6-1 3v7l1 3v8l-4 9-4 3h-7l-7-1-2 1-12 2h-12l-9 3-12 5-19 10-13 10-11 9-8 9-10 13-13 21-9 18-4 12-2 5-4 17-3 9v11l-1 6-1 218-3 4-3 1h-63l-3-3-1-3v-384l1-57 2-3 26-1h27l11 1 6 7v66l-1 6 3 6 3-1 12-20 9-11 18-18 13-10 14-9 23-11 4-2 9-2 4-3 9-2 20-1zm3 4-31 3-19 4-17 6-22 12-12 8-11 10-8 7-11 12-9 13-10 15-5 6v3h-2l1-4-2 1-1-2-1-85-2-1h-62v444h64l1-223 2-16 5-19 8-23 8-16 8-14 10-14 11-13 10-10 14-11 14-9 15-8 21-6 14-2 24-1 1-2v-65z" fill="#A9ACAA"/>
<path transform="translate(1887,1350)" d="m0 0 16 2 16 6 14 10 9 9 9 14 4 11v43l-4 11-7 10-9 10-10 8-14 7-11 3-24 1-11-2-16-8-9-6-12-12-9-15-5-16-2-10 1-12 4-14 4-9 6-10 7-9 11-9 12-7 17-5zm-11 13-16 5-11 7-6 5-9 12-5 11-3 12v15l3 14 6 12 12 13 10 7 11 5 5 1h26l13-4 11-7 10-10 7-11 4-10 2-9v-16l-5-16-6-11-8-9-11-8-13-6-8-2z" fill="#444C4C"/>
<path transform="translate(502,487)" d="m0 0 5 1 36 20 22 13 10 6 16 9 21 12 45 26 24 14 18 10 42 24 22 13 21 12 27 16 25 14 24 14 20 11 24 14 28 16 17 10 8 6 5 6v520l-4 2-1-524-11-8-19-11-21-12-25-14-17-10-42-24-13-8-21-12-29-17-14-8-20-11-19-11-24-14-18-10-13-8-25-14-25-15-23-13-26-15-17-10-20-11-12-7v528l-2-1v-527z" fill="#A9ACAA"/>
<path transform="translate(1529,1332)" d="m0 0h19l9 2 4 1 24 1 13 4 19 5 22 9 18 10 15 10 14 11 12 11 10 11 10 13 10 15 9 15 7 16 7 21 2 8 4 11 1 18 3 14 1 8 1 3v31l-3 20-2 8-1 18-5 14-2 10-8 20-12 23-10 16-11 14-10 11-5 5-12 11-16 12-15 9-23 11-25 9-5-1-14 5-12 2h-71l-12-3-9-3h-10l-9-5-11-3-11-5-16-8-13-8-28-22-12-13-11-14-7-10-9-15-8-15-8-21-5-13-1-10-5-17-1-5v-71l2-22 5-11v-10l5-11 3-11 11-24 10-18 10-13 11-14 14-14 8-7 8-6 18-12 23-12 14-5 7-3 11-2 6-3 10-2 23-1zm-8 5-24 2-25 5-23 7-23 11-14 8-16 12-10 9-7 6v2h-2l-9 11-8 11-10 14-8 14-8 19-8 25-6 28-2 26v51l3 20 7 28 9 24 10 20 10 16 10 13 12 13 16 16 10 8 8 6 16 9 21 9 20 7 27 6 30 2 44-1 18-3 18-4 18-7 20-8 11-6 12-8 14-11 10-9 14-14 13-17 8-13 14-29 8-22 4-14 5-36 1-11v-27l-3-31-4-22-7-24-7-19-8-16-7-12-8-11-10-13-22-22-16-12-16-10-15-8-21-8-23-6-23-3-12-1z" fill="#A9ACAA"/>
<path transform="translate(992,158)" d="m0 0h7l8 4 17 10 21 12 20 12 20 11 24 14 25 14 15 9 49 28 24 14 26 15 25 14 24 14 26 15 22 13 26 15 19 11 35 20 10 6 16 9 1 3-6-2-27-16-23-13-15-9-11-6-26-15-17-10-22-13-28-16-25-14-24-14-46-26-32-19-29-16-27-16-26-15-20-12-27-15-20-12-3-2-4 1-14 7-13 8-20 11-22 13-24 14-18 10-17 10-45 26-17 10-23 13-26 15-18 10-19 11-20 12-18 10-19 11-17 10-28 16-26 15-24 13-25 15 3 3 17 10 22 13 16 9 28 16 13 8 33 18 21 13 27 15 43 25 24 14 28 16 23 13 17 10 25 14 24 14 15 9 18 10 23 13 25 14 8 4v2l-3 1-20-11-15-9-25-14-28-16-24-14-26-15-23-13-15-9-19-11-18-10-24-14-21-12-26-15-11-6-35-21-11-6-20-11-15-9-16-9-24-14-26-15-10-7v-4l8-6 19-11 16-9 21-12 52-30 24-14 16-9 25-15 18-10 14-8 17-10 23-13 21-12 24-14 21-12 24-14 19-11 18-10 19-11 18-11 24-13 10-6z" fill="#A9ACAA"/>
<path transform="translate(1521,1396)" d="m0 0h33l28 5 21 7 15 8 16 11 13 12 10 11 11 16 9 17 8 21 5 22 4 23v28l-3 21-5 24-8 23-10 19-7 11-11 14-10 10-13 10-17 11-14 6-19 6-16 2-10 1h-29l-18-2-21-6-13-5-15-8-14-10-12-12-9-10-6-9-7-11-9-16-6-15-7-25-2-25v-19l1-24 3-21 9-27 8-17 15-22 9-10 14-14 13-9 16-9 21-8zm2 3-6 2-13 1-12 2-9 4-11 4-13 7-15 11-12 11-9 10-8 11-11 19-8 20-4 15-3 7-1 23v47l1 14 8 28 13 27 12 17 11 12 12 12 17 11 23 11 11 2 10 4 39 1 20-1 11-2 10-4 10-2 19-10 12-8 11-9 12-12 10-13 10-17 7-15 7-21 3-19 3-14 1-13v-18l-2-11-4-21-1-12-4-7-3-11-8-16-8-14-11-14-19-19-14-10-17-9-21-7-36-4z" fill="#AAADAB"/>
<path transform="translate(1860,1383)" d="m0 0h40l10 4 8 7 4 8v9l-6 10-3 3h-2l9 19 1 4v8l-3 6-3 2-6-1-5-8-3-12-3-5-2-1h-24l-1 5v16l-3 5-2 1h-6l-5-4-1-3v-64l2-8zm24 11-10 1-5 5-1 5v8l2 7 5 3h13l10-3 7-6 1-8-3-7-5-4-4-1z" fill="#464D4D"/>
<path transform="translate(1021,1396)" d="m0 0h30l29 5 18 6 16 8 12 7 12 9 12 11 11 14 9 15 8 16 5 13 5 18v8l-5 4-89 1h-194l-13-2-2-2v-8l6-21 12-25 10-16 13-16 3-1 2-4 11-9 17-12 16-8 17-6zm3 3-16 3-13 1-9 5-10 2-17 9-13 9-14 12-7 7-9 12-8 13-8 16-5 12-5 19-1 7 4 1h285l5-2 1-7-2-9-5-14-5-12-9-17-12-16-13-14-17-13-10-6-18-8-16-6-19-2-6-1z" fill="#A8ABA9"/>
<path transform="translate(1033,750)" d="m0 0h1l1 8v513l-2 4-2-1-1-29v-489z" fill="#A9ACAA"/>
<path transform="translate(237,1399)" d="m0 0 4 1-15 4-10 4-11 4-17 9-12 8-13 11-6 5-11 14-9 13-10 19-7 20-3 9-1 15-1 5-1 14-1 10v18l1 3 3 27 9 26 12 23 12 16 9 10 6 7 17 13 18 10 16 7 10 1 13 5 5 1h54l12-3 17-6 19-10 11-8 21-21 11-18 8-14 6-5 2-1h58l8 2v2h-69l-11 20-11 16-12 13-3 3h-2v2l-10 8-14 9-15 7-16 5-19 3h-35l-19-3-18-5-14-5-19-10-12-9-14-12-13-15-6-8-10-15-7-14-6-16-5-23-2-15-1-13v-13l2-20 5-27 7-20 10-19 12-17 11-12 8-8 11-9 10-7 14-8 18-8 9-3z" fill="#AAADAB"/>
<path transform="translate(893,1591)" d="m0 0h38l98 1 1 2h-142l1 13 8 27 9 20 10 17 13 15 11 11 16 12 19 10 12 5 16 4 11 3h50l10-1 7-1 9-4 10-2 10-5 11-6 11-7 13-11 7-8 7-11 9-12 5-4 2-1h63l9 2-1 5-4 11-5 9-10 17-7 10-9 12-9 10-15 15-24 18-14 8-15 7-17 6-9 3-6-1v-1l13-3 18-7 14-6 18-11 12-9 11-9 12-11 11-13 11-16 11-19 8-16 3-7h-65l-7 1-7 9-8 12-8 10-10 10-18 12-16 8-24 8-24 3h-35l-22-4-17-5-20-9-15-10-13-11-12-12-9-11-7-10-9-17-6-15-7-23-1-5v-8l4-3z" fill="#ABADAC"/>
<path transform="translate(856,1423)" d="m0 0v3l-9 14-11 23-8 22-6 25-3 17-1 20v21l1 32 3 20 7 27 6 16 9 19 14 23 8 10 9 10 7 8 7 7 22 18 15 9 16 8 26 10 22 5 24 3h60l23-3h5l-3 2-19 5h-78l-20-6h-8l-16-6-10-4-12-5-16-9-15-10-14-11-22-22-7-8-8-11-10-16-8-14-8-18-3-10-4-11-3-16-3-11-1-8v-73l1-5 1-8 4-9 1-15 7-17 7-18 12-22 6-8z" fill="#AAADAB"/>
<path transform="translate(1887,1350)" d="m0 0 16 2 16 6 14 10 9 9 9 14 4 11v43l-4 11-7 10-9 10-10 8-14 7-11 3-24 1-11-2-16-8-9-6-12-12-9-15-5-16-2-10 1-12 4-14 4-9 6-10 7-9 11-9 12-7 17-5zm-1 5-17 2-15 5-12 7-7 6v2h-2l-9 15-5 15-2 15 1 17 3 9 4 8 8 11 11 10 11 7 11 5 17 3h8l18-4 14-7 10-8 8-8 8-13 3-11 1-10v-13l-1-13-3-9-6-12-11-12-16-10-12-5z" fill="#A8ABA9"/>
<path transform="translate(760,1403)" d="m0 0h26l-4 4h-7l-7-1-2 1-12 2h-12l-9 3-12 5-19 10-13 10-11 9-8 9-10 13-13 21-9 18-4 12-2 5-4 17-3 9v11l-1 6-1 218-4 4v-224l2-16 5-19 8-23 8-16 8-14 10-14 11-13 11-11 14-11 14-9 15-8 21-6z" fill="#C1C3C1"/>
<path transform="translate(1323,1503)" d="m0 0 1 3-3 15-2 26v51l3 20 7 28 9 24 10 20 10 16 10 13 12 13 15 15 10 8 8 6 16 9 21 9 20 7 27 6 30 2 44-1 18-3 9-1-2 2-12 4-12 2h-71l-12-3-9-3h-10l-9-5-11-3-11-5-16-8-13-8-28-22-12-13-11-14-7-10-9-15-8-15-8-21-5-13-1-10-5-17-1-5v-71l2-22 5-10z" fill="#AAADAB"/>
<path transform="translate(1521,1396)" d="m0 0h33l28 5 21 7 15 8 16 11 13 12 10 11 11 16 9 17 8 21 5 22 4 23v28l-3 21-5 24-8 23-4 1 3-10 6-18 3-19 3-14 1-13v-18l-2-11-4-21-1-12-4-7-3-11-8-16-8-14-11-14-18-18-14-10-17-9-21-7-36-4h-20l-6 2-21 1 1-3z" fill="#ABAEAC"/>
<path transform="translate(539,420)" d="m0 0 2 1 3 3 17 10 22 13 16 9 28 16 13 8 33 18 21 13 27 15 43 25 24 14 28 16 23 13 17 10 25 14 24 14 15 9 18 10 23 13 25 14 8 4v2l-3 1-20-11-15-9-25-14-28-16-24-14-26-15-23-13-15-9-19-11-18-10-24-14-21-12-26-15-11-6-35-21-11-6-20-11-15-9-16-9-24-14-26-15-10-7z" fill="#A9ACAA"/>
<path transform="translate(503,1017)" d="m0 0 6 1 22 13 27 15 17 10 26 15 18 10 20 12 46 26 27 16 19 11 24 14 23 13 19 11 23 13 48 28 25 14 17 10 25 14 22 13-1 2-4-1-14-8-10-6-21-12-23-13-14-8-20-12-16-9-26-15-27-16-18-10-16-9-23-13-22-13-10-6-26-15-35-20-29-17-46-26-34-20-16-9z" fill="#B2B5B3"/>
<path transform="translate(1e3 159)" d="m0 0 5 2 26 15 24 14 70 40 24 14 49 28 24 14 26 15 25 14 24 14 26 15 22 13 26 15 19 11 35 20 10 6 16 9 1 3-6-2-27-16-23-13-15-9-11-6-26-15-17-10-22-13-28-16-25-14-24-14-46-26-32-19-29-16-27-16-26-15-20-12-27-15-20-12z" fill="#ACAFAD"/>
<path transform="translate(1452,421)" d="m0 0v3l-8 6-20 11-24 14-18 10-21 12-24 14-21 12-24 14-19 11-21 12-26 15-14 8-17 10-16 9-19 11-29 17-24 14-20 11-24 14-28 16-19 11-16 9h-5l1-3 10-3 24-14 13-8 18-10 24-14 16-9 18-10 11-7 22-12 19-11 14-8 21-13 12-6 22-13 24-14 18-10 25-15 27-15 13-8 17-10 21-12 25-14 13-8 26-15z" fill="#A9ACAA"/>
<path transform="translate(1033 1e3)" d="m0 0h1l1 188v82l-2 4-2-1-1-29v-167l1-23 1-53z" fill="#A9ACAA"/>
<path transform="translate(1175,1658)" d="m0 0h63l9 2-1 5-4 11-5 9-10 17-7 10-9 12-9 10-15 15-24 18-14 8-15 7-17 6-9 3-6-1v-1l13-3 18-7 14-6 18-11 12-9 11-9 12-11 11-13 11-16 11-19 8-16 3-7h-65l-7 1-7 9-8 12-8 10-10 10-18 12-16 8-11 4-4-1 2-2 8-2 10-5 11-6 11-7 13-11 7-8 7-11 9-12 5-4z" fill="#A9ACAA"/>
<path transform="translate(502,487)" d="m0 0 5 1 36 20 22 13 5 5-6-2-22-13-27-15-12-7v528l-2-1v-527z" fill="#A9ACAA"/>
<path transform="translate(1493,579)" d="m0 0h1v367h-1l-2-64v-197l1-35z" fill="#FEFEFE"/>
<path transform="translate(1485,487)" d="m0 0 5 1 3 3 1 4v84l-1 71-1 35h-1l-2-120v-76h-7z" fill="#A9ACAA"/>
<path transform="translate(472,1649)" d="m0 0 2 3-2 9-7 16-8 16-8 12-12 16-9 11-13 13-16 12-20 13-14 7-14 6-13 4-7 3-13 2-10 2 1-3 15-3 9-2 30-11 21-11 14-10 14-11 13-12 11-13 12-17 11-21 8-18 4-12z" fill="#AAADAB"/>
<path transform="translate(1881,1358)" d="m0 0 16 1 14 4 10 6 13 12 9 12 4 7-1 2 3 4 1 6v12l-3-4v8h-1l-1-13-5-16-6-11-7-8-11-8-13-6-8-2h-19l-12 3 2-6 7-2z" fill="#A2A5A3"/>
<path transform="translate(405,1645)" d="m0 0h58l8 2v2h-69l-11 20-11 16-12 13-3 3h-2v2l-10 8-2-1 27-27 11-18 8-14 6-5z" fill="#A9ACAA"/>
<path transform="translate(1293,328)" d="m0 0 6 2 46 27 26 15 19 11 35 20 10 6 16 9 1 3-6-2-27-16-23-13-15-9-11-6-26-15-17-10-22-13-12-7z" fill="#ABAEAC"/>
<path transform="translate(1164,588)" d="m0 0v3l-16 9-22 13-25 14-21 12-17 10-28 16-19 11-16 9h-5l1-3 10-3 24-14 13-8 18-10 24-14 16-9 18-10 11-7 22-12z" fill="#A9ACAA"/>
<path transform="translate(1030,904)" d="m0 0h2l1 58v39l-1 54-1 23h-1z" fill="#FEFEFE"/>
<path transform="translate(981,1789)" d="m0 0 9 1 24 3h60l23-3h5l-3 2-19 5h-78l-20-6z" fill="#A9ACAA"/>
<path transform="translate(1491,882)" d="m0 0h1l2 64v62l-2 7-2 1v-59z" fill="#A9ACAA"/>
<path transform="translate(760,1403)" d="m0 0h26l-4 4h-7l-7-1-2 1-12 2h-12l-9 3-12 5-19 10-13 10-11 9-6 7-2-2 12-12 14-11 14-9 15-8 21-6z" fill="#ABAEAC"/>
<path transform="translate(1724,1699)" d="m0 0 1 2-9 13-8 10-9 10-5 5-12 11-16 12-15 9-23 11-25 9-5-2v-1l11-3 24-9 16-7 18-11 16-13 8-7 14-14 13-17z" fill="#AAADAB"/>
<path transform="translate(503,1017)" d="m0 0 6 1 22 13 27 15 17 10 26 15 18 10 9 6v2l-5-2-16-9-23-13-17-10-25-14-13-8-21-12-5-3z" fill="#B2B4B3"/>
<path transform="translate(353,1707)" d="m0 0m-1 1m-1 1m-2 1h2l-2 4-14 8-14 6-13 4-19 3h-35l-14-2v-2h58l12-3 17-6 19-10z" fill="#ABAEAC"/>
<path transform="translate(308,1791)" d="m0 0m-93 1 15 1h63l15-1-1 3-7 2-71 1-9-2-5-1z" fill="#A9ACAA"/>
<path transform="translate(893,1591)" d="m0 0h38l98 1 1 2h-142l1-2z" fill="#C9CBCA"/>
<path transform="translate(1892,1431)" d="m0 0 6 1 6 10 2 1 2 6v8l5 2 2 1 1-6h-1l-2-11-2-5 1-3 3-3 5 11 1 4v8l-3 6-3 2-6-1-5-8-3-12-3-5-2-1-11-1v-3z" fill="#A6A9A7"/>
<path transform="translate(859,1221)" d="m0 0 5 2 22 12 24 14 25 14 22 13-1 2-4-1-14-8-10-6-21-12-23-13-14-8-10-6z" fill="#A9ACAA"/>
<path transform="translate(1021,1396)" d="m0 0h30l19 3 2 2h-3v2l-17-2-28-1-16 3-9-1v-1h5v-2z" fill="#AEB1AF"/>
<path transform="translate(1861,1478)" d="m0 0 12 3h26l12-3 3 3-5 3-10 3h-24l-12-3-5-2 3-3z" fill="#A9ACAA"/>
<path transform="translate(785,1337)" d="m0 0h2l3 7-1 5v19l1 6-1 3v7l1 3v8l-3 8h-3z" fill="#A1A4A3"/>
<path transform="translate(634,364)" d="m0 0m-1 1m-2 1h2l-1 3-23 13-24 14-19 10-15 9-9 5-2-1 9-6 17-10 16-9 21-12 26-15z" fill="#A9ACAA"/>
<path transform="translate(856,1423)" d="m0 0v3l-9 14-11 23-8 22-5 21h-2v-15l7-17 7-18 12-22 6-8z" fill="#ACAFAD"/>
<path transform="translate(408,1746)" d="m0 0m-1 1m-1 1m-1 1m-2 1h2l-2 4-24 16-14 7-14 6-13 4-7 3-13 2-10 2 1-3 15-3 9-2 30-11 21-11 14-10z" fill="#AAADAB"/>
<path transform="translate(1690,1585)" d="m0 0 2 1-1 12-5 24-8 23-4 1 3-10 6-18 3-19 3-13z" fill="#A9ACAA"/>
<path transform="translate(1090,1725)" d="m0 0 2 1-2 3-9 3-24 3h-35l-7-1v-2l2-1h47l10-1 7-1z" fill="#ACAFAD"/>
<path transform="translate(1260,532)" d="m0 0m-1 1m-2 1h2l-1 3-22 12-15 9-14 8-23 13-17 10-2 1 1-3 15-9 14-8 11-7 12-6 22-13z" fill="#ADB0AE"/>
<path transform="translate(776,1332)" d="m0 0h6l5 5-17 1-22 2-18 3 4-5 9-2 20-1z" fill="#AAADAB"/>
<path transform="translate(1472,1342)" d="m0 0m-8 1h8v2l-23 7-23 11-14 8-16 12-3 1 2-4 14-10 13-8 21-11 14-5z" fill="#A9ACAA"/>
<path transform="translate(783,1177)" d="m0 0 5 2 25 14 24 14 22 13 1 3-5-2-19-11-28-16-25-15z" fill="#B4B7B5"/>
<path transform="translate(1347,482)" d="m0 0m-2 1h2l-1 3-18 10-19 11-17 10-31 18-2-1 5-4 18-10 25-15 27-15z" fill="#AAADAB"/>
<path transform="translate(760,1403)" d="m0 0h26l-4 4h-7l-7-1-2 1-12 2h-16l1-2 13-3z" fill="#A8ABA9"/>
<path transform="translate(992,158)" d="m0 0h7l1 2h-5l-15 8-13 8-20 11-5 3-2-1 3-3 13-8 24-13 10-6z" fill="#ACAEAC"/>
<path transform="translate(1879,1404)" d="m0 0h15l4 4-1 3-11 2h-7l-1-1v-7z" fill="#FEFEFE"/>
<path transform="translate(1854,1392)" d="m0 0h1v7h4v29h-4l-1-4z" fill="#A9ACAA"/>
<path transform="translate(508,489)" d="m0 0 15 8 29 16 17 11 1 2-6-2-22-13-27-15-7-4z" fill="#B3B6B4"/>
<path transform="translate(1651,1768)" d="m0 0v3l-23 11-25 9-5-2v-1l11-3 24-9 16-7z" fill="#A9ACAA"/>
<path transform="translate(237,1399)" d="m0 0 4 1-15 4-10 4-11 4-17 9-9 6-2-1 7-6 14-8 18-8 9-3z" fill="#A9ACAA"/>
<path transform="translate(1452,421)" d="m0 0v3l-8 6-20 11-17 10v-3l16-10 26-15z" fill="#ABADAC"/>
<path transform="translate(1e3 159)" d="m0 0 5 2 26 15 21 12v2l-6-2-23-13-22-13z" fill="#AEB1AF"/>
<path transform="translate(1164,588)" d="m0 0v3l-16 9-22 13-16 9-2-1 9-6 13-8 22-12z" fill="#A9ACAA"/>
<path transform="translate(962,1343)" d="m0 0h9v2l-12 3-22 9-8 4-3-1 3-3 16-7 10-3 4-3z" fill="#ADB0AE"/>
<path transform="translate(440,1714)" d="m0 0v3l-11 14-14 14-9 7v-3l9-9 8-7 10-11z" fill="#ACAFAD"/>
<path transform="translate(1236,1682)" d="m0 0 1 3-10 17-7 10-6 8h-2l2-4 10-15 10-17z" fill="#A9ACAA"/>
<path transform="translate(590,1065)" d="m0 0 15 8 22 13 1 3-5-2-16-9-17-10z" fill="#ACAFAD"/>
<path transform="translate(1108,620)" d="m0 0m-2 1h2l-1 3-20 11-20 12v-3l9-6 23-13z" fill="#ABAEAC"/>
<path transform="translate(1860,1383)" d="m0 0 28 1v1l9 1v1l-22 1-14 1 1-2 8-1-8-1-5 2-1-3z" fill="#A9ACAA"/>
<path transform="translate(240,1731)" d="m0 0 34 1v3h-20l-14-2z" fill="#B0B3B1"/>
<path transform="translate(1756,1609)" d="m0 0h1v17l-5 14-2-1 2-10 3-19z" fill="#ACAEAD"/>
<path transform="translate(576,397)" d="m0 0m-2 1 2 1-4 4-16 9-14 8-2-1 9-6 17-10z" fill="#AEB1AF"/>
<path transform="translate(703,1423)" d="m0 0m-1 1m-2 1h2l-1 3-12 9-11 9-6 7-2-2 12-12 14-11z" fill="#ACAFAD"/>
<path transform="translate(1682,1621)" d="m0 0h2v7l-6 17-4 1 3-10z" fill="#C7C9C8"/>
<path transform="translate(1427,1359)" d="m0 0m-1 1m-2 1h2l-1 3-13 7-16 12-3 1 2-4 14-10 13-8z" fill="#A9ACAA"/>
<path transform="translate(752,1159)" d="m0 0 14 7 17 10v2l-6-2-14-8-11-7z" fill="#B0B3B1"/>
<path transform="translate(1136,1778)" d="m0 0m-3 1h3v2l-11 4-15 6-8-1v-1l13-3z" fill="#A9ACAA"/>
<path transform="translate(628,1087)" d="m0 0 11 6 17 10-1 3-10-6-17-10z" fill="#B5B7B6"/>
<path transform="translate(783,1177)" d="m0 0 5 2 23 13 1 3-5-2-23-13z" fill="#CBCDCC"/>
<path transform="translate(408,1746)" d="m0 0m-1 1m-1 1m-1 1m-2 1h2l-2 4-24 16v-3l15-10z" fill="#B5B7B6"/>
<path transform="translate(217,1725)" d="m0 0h9l13 5 1 2-9-1-14-4z" fill="#ABAEAC"/>
<path transform="translate(1290,515)" d="m0 0m-2 1h2l-1 3-25 14-5 2 5-5 18-10z" fill="#A9ACAA"/>
<path transform="translate(274,1732)" d="m0 0h25l-2 2-8 1h-15z" fill="#A9ACAA"/>
<path transform="translate(1686,1604)" d="m0 0 3 1-3 17-2 3-1-7 2-13z" fill="#B1B4B2"/>
<path transform="translate(1678,1749)" d="m0 0m-1 1m-1 1m-2 1h2l-2 4-10 7-11 7v-3l15-10z" fill="#B3B5B3"/>
<path transform="translate(1347,482)" d="m0 0m-2 1h2l-1 3-27 15 2-4 16-9z" fill="#ADB0AE"/>
<path transform="translate(1090,1725)" d="m0 0 2 1-2 3-9 3-6 1h-10l3-3h11z" fill="#BDBFBE"/>
<path transform="translate(335,1785)" d="m0 0m-2 1 3 1-2 2-16 3-10 2 1-3 15-3z" fill="#B8BAB9"/>
<path transform="translate(811,1193)" d="m0 0 5 2 16 9v3l-12-6-8-5z" fill="#ADB0AE"/>
<path transform="translate(1246,1660)" d="m0 0 1 3-5 13-4 6h-2l2-6z" fill="#B8BAB9"/>
<path transform="translate(1724,1699)" d="m0 0 1 2-9 13-6 8-2-2 12-16z" fill="#AEB0AE"/>
<path transform="translate(1858,1454)" d="m0 0h1v6h2v2l5-5h4l-1 4-3 2h-6l-5-4 1-3 2 1z" fill="#A9ACAA"/>
<path transform="translate(1018,672)" d="m0 0v3l-18 10h-5l1-3 10-3z" fill="#A9ACAA"/>
<path transform="translate(179,1423)" d="m0 0m-1 1m-1 1m-2 1h2l-2 4-11 9-5 5-2-1 12-12z" fill="#AEB1AF"/>
<path transform="translate(771,1403)" d="m0 0h15l-4 4h-7l-4-2z" fill="#B0B3B1"/>
<path transform="translate(1164,588)" d="m0 0v3l-16 9-5 3-2-1 5-4 17-9z" fill="#AAADAB"/>
<path transform="translate(1188,574)" d="m0 0v3l-21 12-2 1 1-3 15-9z" fill="#B8BAB8"/>
<path transform="translate(503,1017)" d="m0 0 6 1 15 9-4 1-14-8z" fill="#ACAFAD"/>
<path transform="translate(962,1343)" d="m0 0h9v2l-16 4 2-4z" fill="#B9BBBA"/>
<path transform="translate(992,158)" d="m0 0h7l1 2h-5l-13 7-2-1 6-5z" fill="#A9ACAA"/>
<path transform="translate(377,1768)" d="m0 0v3l-12 6-7 2 2-3z" fill="#ABAEAC"/>
<path transform="translate(1409,1370)" d="m0 0m-1 1v3l-12 9-3 1 2-4z" fill="#B4B6B5"/>
<path transform="translate(1108,620)" d="m0 0m-2 1h2l-1 3-15 8 2-4z" fill="#B0B2B1"/>
<path transform="translate(145,1364)" d="m0 0m-2 1h2l-1 3-12 8h-3l4-4z" fill="#B5B7B6"/>
<path transform="translate(940,1352)" d="m0 0m-2 1 2 1-3 3-8 4-3-1 3-3z" fill="#B0B3B1"/>
<path transform="translate(556,409)" d="m0 0m-2 1h2l-1 3-13 7-2-1 9-6z" fill="#C6C8C6"/>
<path transform="translate(1860,1383)" d="m0 0 20 1v1h-18l-5 2-1-3z" fill="#A2A6A4"/>
<path transform="translate(1035,662)" d="m0 0m-2 1h2l-1 3-14 8v-3l10-6z" fill="#AEB0AE"/>
<path transform="translate(1183,1748)" d="m0 0m-1 1m-1 1m-1 1v3l-11 9v-3l9-8z" fill="#B1B3B2"/>
<path transform="translate(1861,1384)" d="m0 0 19 1v1l-19 2-1-2z" fill="#3F4747"/>
<path transform="translate(846,1214)" d="m0 0 5 1 8 5 1 3-5-2-9-5z" fill="#C9CBCA"/>
<path transform="translate(408,1746)" d="m0 0m-1 1m-1 1m-1 1m-2 1h2l-2 4-8 5 2-4z" fill="#B1B4B2"/>
<path transform="translate(682,1439)" d="m0 0m-1 1v3l-10 10v-3z" fill="#B4B7B5"/>
<path transform="translate(1117,1785)" d="m0 0m-2 1h2v2l-9 3-6-1v-1z" fill="#B5B7B6"/>
<path transform="translate(129,1375)" d="m0 0m-2 1h2l-2 4-8 7-2-1z" fill="#ACAFAD"/>
<path transform="translate(742,1153)" d="m0 0 9 5v3l-11-6z" fill="#C2C4C2"/>
<path transform="translate(856,1423)" d="m0 0v3l-5 7-3 1 2-5z" fill="#AFB2B0"/>
</svg>
