<?xml version="1.0" standalone="no"?>
<!DOCTYPE svg PUBLIC "-//W3C//DTD SVG 20010904//EN"
 "http://www.w3.org/TR/2001/REC-SVG-20010904/DTD/svg10.dtd">
<svg version="1.0" xmlns="http://www.w3.org/2000/svg"
 width="225.000000pt" height="225.000000pt" viewBox="0 0 225.000000 225.000000"
 preserveAspectRatio="xMidYMid meet">

<g transform="translate(0.000000,225.000000) scale(0.100000,-0.100000)"
fill="#000000" stroke="none">
<path d="M2202 2184 c-7 -26 -13 -203 -17 -534 -7 -649 -18 -1094 -25 -1050
-4 22 -9 -18 -14 -106 -5 -78 -5 -152 -1 -165 4 -13 4 -20 -1 -16 -4 4 -11 29
-15 55 l-7 47 0 -45 c0 -126 -7 -61 -13 125 -9 258 -9 207 -3 423 5 153 3 192
-11 233 -17 55 -52 100 -101 129 -38 24 -54 25 -54 5 0 -18 1 -18 -39 -4 -17
6 -31 17 -31 25 0 11 -22 14 -105 14 -87 0 -105 -3 -105 -15 0 -13 -27 -15
-180 -16 -222 -2 -203 0 -217 -24 -6 -11 -15 -20 -20 -20 -4 0 -7 -3 -6 -7 2
-5 -2 -8 -8 -8 -8 0 -10 -28 -7 -90 4 -82 7 -93 31 -118 l27 -26 187 -4 c104
-2 190 -8 191 -13 2 -5 26 -9 53 -9 l49 0 0 -35 0 -35 -50 0 c-38 0 -50 -4
-50 -15 0 -13 -21 -15 -132 -15 -73 0 -156 -3 -185 -6 -46 -6 -53 -10 -62 -37
-16 -44 -14 -107 2 -107 9 0 14 -13 15 -35 1 -24 -3 -35 -13 -35 -26 0 7 -73
39 -88 12 -5 115 -13 229 -17 l207 -8 0 -27 0 -27 -97 -6 c-54 -4 -163 -7
-241 -7 -205 0 -222 -13 -222 -170 0 -102 11 -133 55 -160 29 -18 53 -19 341
-20 170 -1 317 1 327 5 10 5 17 3 17 -5 0 -9 10 -11 30 -6 22 4 30 2 30 -9 0
-9 -7 -12 -22 -9 -36 8 -95 14 -75 8 73 -23 -87 -31 -753 -39 -250 -4 -476 -8
-503 -9 -37 -3 -47 0 -47 12 0 8 21 60 46 116 25 56 56 123 67 151 12 27 50
107 85 178 34 70 62 130 62 133 0 2 -137 4 -305 4 l-305 0 0 565 0 565 643 0
642 0 60 83 c32 45 96 132 142 193 46 61 83 115 83 120 0 5 -357 8 -837 6
-461 -1 -852 -2 -869 -2 -23 0 -34 -6 -42 -25 -9 -19 -12 -294 -12 -1049 0
-927 -2 -1024 -16 -1030 -9 -3 -20 -4 -25 0 -20 12 -7 -25 17 -50 l27 -26
1068 2 1068 3 23 23 23 23 3 1063 c2 1015 1 1064 -16 1086 l-18 22 -12 -38z
m-276 -980 c19 -9 44 -31 57 -48 20 -28 22 -44 25 -194 3 -147 1 -167 -17
-202 -20 -38 -20 -38 0 -78 18 -36 20 -57 17 -204 -3 -144 -5 -166 -23 -190
-43 -58 -46 -58 -379 -58 l-306 0 0 70 0 70 280 0 280 0 0 140 0 140 -245 0
-245 0 0 70 0 70 245 0 245 0 0 140 0 140 -280 0 -280 0 0 68 c0 38 3 72 7 75
3 4 137 7 296 7 246 0 294 -2 323 -16z m231 -936 c-3 -7 -5 -2 -5 12 0 14 2
19 5 13 2 -7 2 -19 0 -25z m-17 -8 c0 -5 -5 -10 -11 -10 -5 0 -7 5 -4 10 3 6
8 10 11 10 2 0 4 -4 4 -10z"/>
<path d="M330 1210 l0 -490 284 0 284 0 36 65 c20 36 36 68 36 70 0 3 -99 5
-220 5 l-220 0 0 355 0 355 433 0 432 0 43 65 42 65 -575 0 -575 0 0 -490z
m148 -162 c3 -28 3 -28 -57 -28 l-61 0 0 30 0 31 58 -3 c54 -3 57 -4 60 -30z
m2 -113 l0 -75 -60 0 -60 0 0 75 0 75 60 0 60 0 0 -75z"/>
</g>
</svg>
