<?xml version="1.0" encoding="UTF-8"?>
<svg version="1.1" xmlns="http://www.w3.org/2000/svg" width="540" height="180">
<path d="M0 0 C178.2 0 356.4 0 540 0 C540 59.4 540 118.8 540 180 C361.8 180 183.6 180 0 180 C0 120.6 0 61.2 0 0 Z " fill="#F1F2F4" transform="translate(0,0)"/>
<path d="M0 0 C1.66611905 -0.042721 3.33382885 -0.04063832 5 0 C6.84408622 1.84408622 6.13739916 4.83898264 6.14526367 7.30810547 C6.14862228 7.96667542 6.1519809 8.62524536 6.15544128 9.30377197 C6.1649783 11.49159608 6.16689588 13.67934387 6.16796875 15.8671875 C6.17117985 17.38314852 6.17454381 18.89910922 6.17805481 20.41506958 C6.18405327 23.59784666 6.18589402 26.78059657 6.18530273 29.96337891 C6.18520117 34.04469806 6.1988443 38.12584302 6.21607494 42.2071209 C6.22718721 45.34006553 6.22922217 48.472968 6.22869301 51.60593033 C6.22987464 53.11064376 6.23430668 54.61535824 6.24202538 56.12005234 C6.25180814 58.22452771 6.24895404 60.32862417 6.24291992 62.43310547 C6.24434494 63.63144012 6.24576996 64.82977478 6.24723816 66.06442261 C6 69 6 69 4 72 C1.0640564 72.36076355 1.0640564 72.36076355 -2.74462891 72.34057617 C-3.43742447 72.34101425 -4.13022003 72.34145233 -4.8440094 72.34190369 C-7.13847851 72.33981032 -9.43222074 72.31645468 -11.7265625 72.29296875 C-13.31553752 72.28737471 -14.90451771 72.28310371 -16.49349976 72.28010559 C-20.67922203 72.26864158 -24.86463286 72.23916131 -29.05023193 72.20599365 C-33.31990343 72.17532611 -37.58962516 72.16160737 -41.859375 72.14648438 C-50.23972639 72.11429284 -58.61982447 72.06307803 -67 72 C-67.33 70.68 -67.66 69.36 -68 68 C-67.34 68 -66.68 68 -66 68 C-66.00523682 66.7632251 -66.01047363 65.5264502 -66.01586914 64.25219727 C-66.03391561 59.68075275 -66.04543071 55.10931141 -66.05493164 50.5378418 C-66.05997267 48.55606559 -66.06680538 46.57429311 -66.07543945 44.5925293 C-66.08751515 41.75047891 -66.09323045 38.90847753 -66.09765625 36.06640625 C-66.10281754 35.17474258 -66.10797882 34.28307892 -66.11329651 33.36439514 C-66.11349177 31.24259399 -66.0621003 29.1208922 -66 27 C-65 26 -65 26 -61.62109375 25.90234375 C-60.22652508 25.90808576 -58.83198403 25.92109772 -57.4375 25.9375 C-54.983125 25.958125 -52.52875 25.97875 -50 26 C-50.33 34.25 -50.66 42.5 -51 51 C-45.06 51 -39.12 51 -33 51 C-33 53.31 -33 55.62 -33 58 C-31.35 58 -29.7 58 -28 58 C-28 51.73 -28 45.46 -28 39 C-29.65 39 -31.3 39 -33 39 C-33 41.31 -33 43.62 -33 46 C-36.96 46 -40.92 46 -45 46 C-45.02683436 42.68744674 -45.0467578 39.37510817 -45.0625 36.0625 C-45.07087891 35.11697266 -45.07925781 34.17144531 -45.08789062 33.19726562 C-45.09272461 31.84858398 -45.09272461 31.84858398 -45.09765625 30.47265625 C-45.10551147 29.22367554 -45.10551147 29.22367554 -45.11352539 27.94946289 C-45 26 -45 26 -44 25 C-42.14712498 24.92773498 -40.29166122 24.9161878 -38.4375 24.9375 C-37.42558594 24.94652344 -36.41367187 24.95554687 -35.37109375 24.96484375 C-34.58863281 24.97644531 -33.80617188 24.98804687 -33 25 C-33 27.31 -33 29.62 -33 32 C-31.35 32 -29.7 32 -28 32 C-28 26.06 -28 20.12 -28 14 C-29.65 14.33 -31.3 14.66 -33 15 C-33.495 17.475 -33.495 17.475 -34 20 C-38.39656173 20.02465504 -42.7930872 20.04283842 -47.18969727 20.05493164 C-48.68644918 20.05997121 -50.18319616 20.06680287 -51.67993164 20.07543945 C-53.82699807 20.08752159 -55.97399962 20.09323191 -58.12109375 20.09765625 C-60.06133423 20.10551147 -60.06133423 20.10551147 -62.04077148 20.11352539 C-65 20 -65 20 -66 19 C-66.12658222 16.34177343 -66.18520214 13.72112576 -66.1875 11.0625 C-66.20586914 9.9497168 -66.20586914 9.9497168 -66.22460938 8.81445312 C-66.22988478 6.87486371 -66.12188902 4.9357629 -66 3 C-64 1 -64 1 -61.97518921 0.75949097 C-61.14468048 0.76393219 -60.31417175 0.76837341 -59.45849609 0.77294922 C-58.04725967 0.77317581 -58.04725967 0.77317581 -56.60751343 0.77340698 C-55.58976837 0.78372955 -54.57202332 0.79405212 -53.5234375 0.8046875 C-52.48305328 0.8075174 -51.44266907 0.81034729 -50.37075806 0.81326294 C-47.03872306 0.82448296 -43.70695414 0.84959085 -40.375 0.875 C-38.11979554 0.88502744 -35.86458688 0.8941537 -33.609375 0.90234375 C-28.07282546 0.92442822 -22.53643173 0.95792361 -17 1 C-17.66 1.33 -18.32 1.66 -19 2 C-19.81421554 4.78712244 -20.40933613 7.59614949 -21.0234375 10.43359375 C-22 13 -22 13 -24.1015625 14.34765625 C-24.72804688 14.56292969 -25.35453125 14.77820312 -26 15 C-26 15.66 -26 16.32 -26 17 C-24.68 17 -23.36 17 -22 17 C-22 21.95 -22 26.9 -22 32 C-20.35 32 -18.7 32 -17 32 C-17.020625 31.030625 -17.04125 30.06125 -17.0625 29.0625 C-17 26 -17 26 -16 25 C-13.98035801 24.92755947 -11.95832876 24.91622812 -9.9375 24.9375 C-8.28041016 24.95103516 -8.28041016 24.95103516 -6.58984375 24.96484375 C-5.73519531 24.97644531 -4.88054687 24.98804687 -4 25 C-4.495 23.02 -4.495 23.02 -5 21 C-8.3 20.67 -11.6 20.34 -15 20 C-15 17.69 -15 15.38 -15 13 C-16.98 13 -18.96 13 -21 13 C-20.66915024 9.2503694 -19.54056443 6.05607565 -17.07421875 3.16015625 C-12.2306441 0.45103823 -5.39708846 1.63340531 0 2 C0 1.34 0 0.68 0 0 Z " fill="#CA3638" transform="translate(297,17)"/>
<path d="M0 0 C1.8162941 0.00641258 1.8162941 0.00641258 3.66928101 0.01295471 C4.3396489 0.00725967 5.01001678 0.00156464 5.70069885 -0.00430298 C7.91054494 -0.015394 10.1174143 0.01661685 12.32699585 0.05030823 C13.86348116 0.05388548 15.39997312 0.05524272 16.9364624 0.05447388 C20.15299686 0.05916229 23.36852661 0.08398231 26.58480835 0.12428284 C30.71230305 0.17534021 34.83869719 0.18672329 38.96647072 0.18444729 C42.13721264 0.18526195 45.30771284 0.20169651 48.47837448 0.22345161 C50.00063625 0.23301127 51.52292544 0.23891376 53.04521561 0.24113274 C55.16907968 0.24762021 57.29176337 0.27383718 59.41537476 0.30592346 C60.6246463 0.31735886 61.83391785 0.32879425 63.07983398 0.34057617 C64.01475677 0.47295181 64.94967957 0.60532745 65.91293335 0.74171448 C66.90293335 2.22671448 66.90293335 2.22671448 67.91293335 3.74171448 C66.59293335 3.74171448 65.27293335 3.74171448 63.91293335 3.74171448 C63.91293335 4.40171448 63.91293335 5.06171448 63.91293335 5.74171448 C62.88812866 5.73269104 61.86332397 5.7236676 60.8074646 5.71437073 C53.42473474 5.56631274 53.42473474 5.56631274 46.8387146 8.26124573 C44.98275673 10.90863308 43.93060462 13.68870066 42.91293335 16.74171448 C44.89293335 16.74171448 46.87293335 16.74171448 48.91293335 16.74171448 C48.91293335 19.05171448 48.91293335 21.36171448 48.91293335 23.74171448 C52.21293335 23.74171448 55.51293335 23.74171448 58.91293335 23.74171448 C59.40793335 26.21671448 59.40793335 26.21671448 59.91293335 28.74171448 C55.95293335 29.07171448 51.99293335 29.40171448 47.91293335 29.74171448 C47.58293335 31.72171448 47.25293335 33.70171448 46.91293335 35.74171448 C45.26293335 35.74171448 43.61293335 35.74171448 41.91293335 35.74171448 C41.91293335 30.79171448 41.91293335 25.84171448 41.91293335 20.74171448 C40.26293335 21.07171448 38.61293335 21.40171448 36.91293335 21.74171448 C37.91293335 18.74171448 37.91293335 18.74171448 40.91293335 16.74171448 C41.88642224 14.62987353 41.88642224 14.62987353 42.53793335 12.24171448 C43.87194974 7.82368169 43.87194974 7.82368169 44.91293335 5.74171448 C38.52256104 5.71644386 32.13220152 5.6988813 25.74179077 5.68678284 C23.56600462 5.6817414 21.39022188 5.67490841 19.21444702 5.66627502 C16.09440268 5.6542011 12.97440296 5.64848443 9.8543396 5.64405823 C8.87518082 5.63889694 7.89602203 5.63373566 6.88719177 5.62841797 C5.98633347 5.62834244 5.08547516 5.62826691 4.15731812 5.62818909 C3.36011856 5.62596848 2.56291901 5.62374786 1.74156189 5.62145996 C-0.10628946 5.54120992 -0.10628946 5.54120992 -1.08706665 6.74171448 C-1.16032101 9.44040497 -1.17929016 12.10674004 -1.14956665 14.80421448 C-1.12894165 17.42358948 -1.10831665 20.04296448 -1.08706665 22.74171448 C9.14293335 23.07171448 19.37293335 23.40171448 29.91293335 23.74171448 C29.91293335 22.09171448 29.91293335 20.44171448 29.91293335 18.74171448 C30.40793335 18.24671448 30.40793335 18.24671448 30.91293335 17.74171448 C32.56293335 17.74171448 34.21293335 17.74171448 35.91293335 17.74171448 C35.91293335 23.68171448 35.91293335 29.62171448 35.91293335 35.74171448 C34.26293335 35.74171448 32.61293335 35.74171448 30.91293335 35.74171448 C30.91293335 33.43171448 30.91293335 31.12171448 30.91293335 28.74171448 C27.28293335 29.07171448 23.65293335 29.40171448 19.91293335 29.74171448 C19.58293335 36.34171448 19.25293335 42.94171448 18.91293335 49.74171448 C22.87293335 49.74171448 26.83293335 49.74171448 30.91293335 49.74171448 C30.91293335 47.43171448 30.91293335 45.12171448 30.91293335 42.74171448 C32.56293335 42.74171448 34.21293335 42.74171448 35.91293335 42.74171448 C35.91293335 49.01171448 35.91293335 55.28171448 35.91293335 61.74171448 C34.26293335 61.74171448 32.61293335 61.74171448 30.91293335 61.74171448 C30.91293335 59.43171448 30.91293335 57.12171448 30.91293335 54.74171448 C24.97293335 54.74171448 19.03293335 54.74171448 12.91293335 54.74171448 C12.88595925 51.324995 12.86610663 47.90848859 12.85043335 44.49171448 C12.84205444 43.52362854 12.83367554 42.5555426 12.82504272 41.55812073 C12.82020874 40.15626526 12.82020874 40.15626526 12.8152771 38.72608948 C12.80742187 37.43783264 12.80742187 37.43783264 12.79940796 36.12355042 C12.91293335 33.74171448 12.91293335 33.74171448 13.91293335 29.74171448 C8.96293335 30.07171448 4.01293335 30.40171448 -1.08706665 30.74171448 C-1.41706665 44.27171448 -1.74706665 57.80171448 -2.08706665 71.74171448 C-2.74706665 71.74171448 -3.40706665 71.74171448 -4.08706665 71.74171448 C-3.75706665 73.06171448 -3.42706665 74.38171448 -3.08706665 75.74171448 C-3.74706665 75.74171448 -4.40706665 75.74171448 -5.08706665 75.74171448 C-5.08706665 74.75171448 -5.08706665 73.76171448 -5.08706665 72.74171448 C-5.74706665 72.74171448 -6.40706665 72.74171448 -7.08706665 72.74171448 C-7.17989115 64.24006376 -7.25089418 55.73862602 -7.29431534 47.23659325 C-7.31515912 43.28841075 -7.34341714 39.34057585 -7.38882446 35.39259338 C-7.43239817 31.58002447 -7.45622789 27.76778916 -7.46657562 23.95499039 C-7.47394646 22.50294877 -7.48834021 21.05092469 -7.50998688 19.59902573 C-7.53917641 17.55944115 -7.54301652 15.52122159 -7.54116821 13.48146057 C-7.55005066 12.32230133 -7.55893311 11.16314209 -7.56808472 9.96885681 C-6.80103561 4.82273691 -5.29234338 1.27156558 0 0 Z " fill="#EA9A9B" transform="translate(233.08706665039063,13.258285522460938)"/>
<path d="M0 0 C0.80847885 -0.00145523 1.6169577 -0.00291046 2.44993591 -0.00440979 C4.15538139 -0.00275285 5.86084213 0.00878564 7.56616211 0.02954102 C10.17821602 0.05853406 12.78824452 0.05013937 15.40039062 0.03710938 C17.05860362 0.04334593 18.71681021 0.05173623 20.375 0.0625 C21.54694664 0.05809654 21.54694664 0.05809654 22.74256897 0.05360413 C28.06808274 0.14643936 28.06808274 0.14643936 30.61816406 1.75878906 C31.8610129 3.91168885 31.96682585 5.24668512 31.9140625 7.7265625 C31.89956055 8.93022461 31.89956055 8.93022461 31.88476562 10.15820312 C31.85962891 10.99158203 31.83449219 11.82496094 31.80859375 12.68359375 C31.78829102 13.95106445 31.78829102 13.95106445 31.76757812 15.24414062 C31.73225174 17.32839759 31.67844514 19.41232652 31.62109375 21.49609375 C30.96109375 21.49609375 30.30109375 21.49609375 29.62109375 21.49609375 C29.62109375 22.15609375 29.62109375 22.81609375 29.62109375 23.49609375 C30.28109375 23.49609375 30.94109375 23.49609375 31.62109375 23.49609375 C31.67499732 26.43383838 31.71471925 29.37059607 31.74609375 32.30859375 C31.76285156 33.14197266 31.77960938 33.97535156 31.796875 34.83398438 C31.80654297 36.03764648 31.80654297 36.03764648 31.81640625 37.265625 C31.8321167 38.37321167 31.8321167 38.37321167 31.84814453 39.50317383 C31.62109375 41.49609375 31.62109375 41.49609375 29.62109375 44.49609375 C26.03657072 45.95422258 22.14923473 45.62559917 18.3359375 45.62890625 C17.63843887 45.62986298 16.94094025 45.6308197 16.2223053 45.63180542 C14.7522879 45.63248411 13.28226745 45.63065153 11.81225586 45.62646484 C9.56291993 45.62110406 7.31378294 45.62642445 5.06445312 45.6328125 C3.63411414 45.63215182 2.20377529 45.63087087 0.7734375 45.62890625 C-0.52601807 45.62777832 -1.82547363 45.62665039 -3.16430664 45.62548828 C-6.37890625 45.49609375 -6.37890625 45.49609375 -9.37890625 44.49609375 C-13.12491874 40.05637524 -12.62652777 36.02630759 -12.37890625 30.49609375 C-9.40890625 30.49609375 -6.43890625 30.49609375 -3.37890625 30.49609375 C-3.37890625 32.80609375 -3.37890625 35.11609375 -3.37890625 37.49609375 C5.20109375 37.49609375 13.78109375 37.49609375 22.62109375 37.49609375 C22.62109375 33.86609375 22.62109375 30.23609375 22.62109375 26.49609375 C16.35109375 26.49609375 10.08109375 26.49609375 3.62109375 26.49609375 C3.62109375 23.85609375 3.62109375 21.21609375 3.62109375 18.49609375 C9.89109375 18.49609375 16.16109375 18.49609375 22.62109375 18.49609375 C22.62109375 14.86609375 22.62109375 11.23609375 22.62109375 7.49609375 C14.04109375 7.49609375 5.46109375 7.49609375 -3.37890625 7.49609375 C-3.37890625 9.80609375 -3.37890625 12.11609375 -3.37890625 14.49609375 C-6.34890625 14.49609375 -9.31890625 14.49609375 -12.37890625 14.49609375 C-12.48757927 12.9142976 -12.56480452 11.33032222 -12.62890625 9.74609375 C-12.6753125 8.864375 -12.72171875 7.98265625 -12.76953125 7.07421875 C-11.69708671 -0.00391525 -6.0205987 -0.08679273 0 0 Z " fill="#0A0B0B" transform="translate(420.37890625,98.50390625)"/>
<path d="M0 0 C3.3 0 6.6 0 10 0 C10.48210937 1.24136719 10.96421875 2.48273438 11.4609375 3.76171875 C12.0989454 5.40365086 12.73696696 7.04557766 13.375 8.6875 C13.69210938 9.50412109 14.00921875 10.32074219 14.3359375 11.16210938 C15.87248677 15.11552261 17.41366503 19.06620975 19 23 C22.4284912 19.16135188 23.86464753 14.56023029 25.625 9.8125 C26.23990838 8.17232083 26.85698086 6.5329508 27.4765625 4.89453125 C27.74549316 4.17112549 28.01442383 3.44771973 28.29150391 2.70239258 C29 1 29 1 30 0 C32.33297433 -0.04092937 34.66705225 -0.04241723 37 0 C40.33333333 8 43.66666667 16 47 24 C48.57549695 21.00934429 49.76116846 18.0021085 50.875 14.8125 C52.68253483 9.75683867 54.74010018 4.86840122 57 0 C59.64 0 62.28 0 65 0 C57.15451895 23.97230321 57.15451895 23.97230321 52 35 C51.32165413 36.66194738 50.64800425 38.32598903 50 40 C48.02 40 46.04 40 44 40 C39.45153628 31.22796282 35.88328376 22.73029942 34 13 C33.34 13 32.68 13 32 13 C31.608125 14.216875 31.21625 15.43375 30.8125 16.6875 C28.18843566 24.57218857 25.09770434 32.29142698 22 40 C19.69 40 17.38 40 15 40 C14.62488281 38.99582031 14.24976563 37.99164063 13.86328125 36.95703125 C7.72775663 20.14847011 7.72775663 20.14847011 0.69921875 3.70703125 C0 2 0 2 0 0 Z " fill="#0F1010" transform="translate(185,104)"/>
<path d="M0 0 C1.00796127 -0.00430527 1.00796127 -0.00430527 2.0362854 -0.00869751 C3.45681603 -0.01073699 4.87737481 -0.00521507 6.29785156 0.00732422 C8.46223543 0.02333154 10.62473793 0.00749998 12.7890625 -0.01171875 C14.17187909 -0.00973531 15.55469452 -0.00588955 16.9375 0 C18.19095215 0.00338379 19.4444043 0.00676758 20.73583984 0.01025391 C24.40316987 0.4332232 26.31195354 0.98029932 29.1015625 3.3984375 C29.74853516 5.89453125 29.74853516 5.89453125 29.765625 8.8359375 C29.77529297 10.42535156 29.77529297 10.42535156 29.78515625 12.046875 C29.76582031 13.15289062 29.74648438 14.25890625 29.7265625 15.3984375 C29.74589844 16.50445312 29.76523437 17.61046875 29.78515625 18.75 C29.77871094 19.80960938 29.77226562 20.86921875 29.765625 21.9609375 C29.75716553 23.41693359 29.75716553 23.41693359 29.74853516 24.90234375 C29.1015625 27.3984375 29.1015625 27.3984375 26.99194336 29.21337891 C23.54013875 30.62862171 20.92000492 30.78640631 17.19140625 30.796875 C15.87205078 30.80074219 14.55269531 30.80460937 13.19335938 30.80859375 C12.17036743 30.79916748 12.17036743 30.79916748 11.12670898 30.78955078 C9.04149191 30.77345625 6.95820493 30.78943908 4.87304688 30.80859375 C3.55498047 30.80472656 2.23691406 30.80085938 0.87890625 30.796875 C-0.32515869 30.79349121 -1.52922363 30.79010742 -2.76977539 30.78662109 C-6.18578836 30.36278492 -7.62010506 29.97090459 -9.8984375 27.3984375 C-10.40014648 24.90234375 -10.40014648 24.90234375 -10.39453125 21.9609375 C-10.39517578 20.90132812 -10.39582031 19.84171875 -10.39648438 18.75 C-10.37650391 17.64398438 -10.35652344 16.53796875 -10.3359375 15.3984375 C-10.34302734 14.29242188 -10.35011719 13.18640625 -10.35742188 12.046875 C-10.29421682 4.05386711 -10.29421682 4.05386711 -8.80249023 1.58349609 C-5.89593175 -0.22550953 -3.39671282 0.00918622 0 0 Z " fill="#121212" transform="translate(257.8984375,113.6015625)"/>
<path d="M0 0 C0.82688828 -0.00145523 1.65377655 -0.00291046 2.50572205 -0.00440979 C4.24807267 -0.00275463 5.99043849 0.00876378 7.73266602 0.02954102 C10.39727892 0.05853863 13.05990593 0.0501343 15.72460938 0.03710938 C17.42058257 0.04334608 19.1165495 0.05173649 20.8125 0.0625 C21.6073732 0.05956436 22.4022464 0.05662872 23.22120667 0.05360413 C26.51622544 0.10975339 28.92939975 0.27159786 31.84838867 1.86816406 C33.33984375 3.49609375 33.33984375 3.49609375 33.73046875 5.9765625 C33.6840625 6.86988281 33.63765625 7.76320313 33.58984375 8.68359375 C33.55375 9.58464844 33.51765625 10.48570313 33.48046875 11.4140625 C33.4340625 12.10113281 33.38765625 12.78820312 33.33984375 13.49609375 C30.69984375 13.49609375 28.05984375 13.49609375 25.33984375 13.49609375 C25.33984375 11.51609375 25.33984375 9.53609375 25.33984375 7.49609375 C15.43984375 7.49609375 5.53984375 7.49609375 -4.66015625 7.49609375 C-4.66015625 15.74609375 -4.66015625 23.99609375 -4.66015625 32.49609375 C5.23984375 32.49609375 15.13984375 32.49609375 25.33984375 32.49609375 C25.33984375 29.52609375 25.33984375 26.55609375 25.33984375 23.49609375 C21.04984375 23.49609375 16.75984375 23.49609375 12.33984375 23.49609375 C11.67984375 22.17609375 11.01984375 20.85609375 10.33984375 19.49609375 C18.25984375 19.49609375 26.17984375 19.49609375 34.33984375 19.49609375 C34.49453125 23.30140625 34.49453125 23.30140625 34.65234375 27.18359375 C34.69786377 27.97338623 34.74338379 28.76317871 34.7902832 29.5769043 C34.80901489 30.53270386 34.80901489 30.53270386 34.828125 31.5078125 C34.85430908 32.15194092 34.88049316 32.79606934 34.9074707 33.4597168 C33.94239601 36.92194821 32.16486851 38.34574625 29.33984375 40.49609375 C26.45508082 41.19796317 23.67266569 41.17465788 20.71484375 41.125 C19.89032715 41.12741196 19.06581055 41.12982391 18.21630859 41.13230896 C16.47814103 41.13133221 14.73994171 41.11797942 13.00195312 41.09301758 C10.34787879 41.05869765 7.69713461 41.07236775 5.04296875 41.09179688 C3.35024631 41.08489806 1.65753242 41.07522535 -0.03515625 41.0625 C-1.21972412 41.0699398 -1.21972412 41.0699398 -2.42822266 41.07752991 C-6.13582694 40.99864097 -8.32523954 40.67288111 -11.65771484 38.91381836 C-14.39084928 35.61386343 -14.30567788 33.5009582 -14.32421875 29.24609375 C-14.32900238 28.5509668 -14.33378601 27.85583984 -14.3387146 27.13964844 C-14.34210852 25.67380503 -14.33294106 24.20788542 -14.31201172 22.7421875 C-14.28522908 20.50218489 -14.31176624 18.26719109 -14.34375 16.02734375 C-14.3404458 14.60024939 -14.33403933 13.17315814 -14.32421875 11.74609375 C-14.3185791 10.451875 -14.31293945 9.15765625 -14.30712891 7.82421875 C-13.66015625 4.49609375 -13.66015625 4.49609375 -11.65991211 2.07397461 C-7.64997104 -0.0352668 -4.46608314 -0.0632805 0 0 Z " fill="#0D0D0D" transform="translate(91.66015625,103.50390625)"/>
<path d="M0 0 C0.83050873 0.00444122 1.66101746 0.00888245 2.51669312 0.01345825 C3.92792953 0.01368484 3.92792953 0.01368484 5.36767578 0.01391602 C6.38542084 0.02423859 7.40316589 0.03456116 8.45175171 0.04519653 C9.49213593 0.04802643 10.53252014 0.05085632 11.60443115 0.05377197 C14.93646615 0.064992 18.26823507 0.09009989 21.60018921 0.11550903 C23.85539367 0.12553648 26.11060233 0.13466273 28.36581421 0.14285278 C33.90236375 0.16493725 39.43875748 0.19843265 44.97518921 0.24050903 C44.31518921 0.57050903 43.65518921 0.90050903 42.97518921 1.24050903 C42.16097367 4.02763147 41.56585308 6.83665852 40.95175171 9.67410278 C39.97518921 12.24050903 39.97518921 12.24050903 35.97518921 14.24050903 C35.64518921 20.18050903 35.31518921 26.12050903 34.97518921 32.24050903 C33.32518921 32.24050903 31.67518921 32.24050903 29.97518921 32.24050903 C28.10967495 35.82803645 26.54982993 39.51863096 24.97518921 43.24050903 C26.46018921 43.73550903 26.46018921 43.73550903 27.97518921 44.24050903 C27.97518921 42.26050903 27.97518921 40.28050903 27.97518921 38.24050903 C28.30518921 38.24050903 28.63518921 38.24050903 28.97518921 38.24050903 C28.97518921 40.55050903 28.97518921 42.86050903 28.97518921 45.24050903 C25.01518921 45.24050903 21.05518921 45.24050903 16.97518921 45.24050903 C16.94835484 41.92795578 16.92843141 38.6156172 16.91268921 35.30300903 C16.9043103 34.35748169 16.8959314 33.41195435 16.88729858 32.43777466 C16.8824646 31.08909302 16.8824646 31.08909302 16.87753296 29.71316528 C16.86967773 28.46418457 16.86967773 28.46418457 16.86166382 27.18997192 C16.97518921 25.24050903 16.97518921 25.24050903 17.97518921 24.24050903 C19.82806422 24.16824402 21.68352798 24.15669684 23.53768921 24.17800903 C24.54960327 24.18703247 25.56151733 24.19605591 26.60409546 24.20535278 C27.77778687 24.22275513 27.77778687 24.22275513 28.97518921 24.24050903 C28.97518921 26.55050903 28.97518921 28.86050903 28.97518921 31.24050903 C30.62518921 31.24050903 32.27518921 31.24050903 33.97518921 31.24050903 C33.97518921 25.30050903 33.97518921 19.36050903 33.97518921 13.24050903 C32.32518921 13.57050903 30.67518921 13.90050903 28.97518921 14.24050903 C28.64518921 15.89050903 28.31518921 17.54050903 27.97518921 19.24050903 C23.57862748 19.26516407 19.18210201 19.28334746 14.78549194 19.29544067 C13.28874003 19.30048024 11.79199305 19.30731191 10.29525757 19.31594849 C8.14819114 19.32803062 6.00118959 19.33374095 3.85409546 19.33816528 C1.91385498 19.34602051 1.91385498 19.34602051 -0.06558228 19.35403442 C-3.02481079 19.24050903 -3.02481079 19.24050903 -4.02481079 18.24050903 C-4.15139301 15.58228246 -4.21001293 12.9616348 -4.21231079 10.30300903 C-4.22455688 9.56115356 -4.23680298 8.8192981 -4.24942017 8.05496216 C-4.25469557 6.11537274 -4.14669981 4.17627194 -4.02481079 2.24050903 C-2.02481079 0.24050903 -2.02481079 0.24050903 0 0 Z " fill="#EA6463" transform="translate(235.02481079101563,17.759490966796875)"/>
<path d="M0 0 C8.58 0 17.16 0 26 0 C26 3.63 26 7.26 26 11 C19.73 11 13.46 11 7 11 C7 13.64 7 16.28 7 19 C13.27 19 19.54 19 26 19 C26 22.63 26 26.26 26 30 C17.42 30 8.84 30 0 30 C0 27.69 0 25.38 0 23 C-2.97 23 -5.94 23 -9 23 C-9 26.63 -9 30.26 -9 34 C-9.66 34 -10.32 34 -11 34 C-11 30.04 -11 26.08 -11 22 C-15.18874176 21.22461368 -19.23620401 20.82545987 -23.4921875 20.68359375 C-24.69101562 20.64169922 -25.88984375 20.59980469 -27.125 20.55664062 C-28.3625 20.51732422 -29.6 20.47800781 -30.875 20.4375 C-32.13570313 20.39431641 -33.39640625 20.35113281 -34.6953125 20.30664062 C-37.79677423 20.20090898 -40.89831145 20.09881429 -44 20 C-44 18.02 -44 16.04 -44 14 C-33.77 14 -23.54 14 -13 14 C-12.67 12.35 -12.34 10.7 -12 9 C-11.34 8.01 -10.68 7.02 -10 6 C-6.7 6.33 -3.4 6.66 0 7 C0 4.69 0 2.38 0 0 Z " fill="#F6F7F8" transform="translate(417,106)"/>
<path d="M0 0 C4.22575531 -0.79647744 7.79383948 -0.98513978 12 0 C16.44026827 3.17331172 19.73661439 7.68308046 23 12 C26.88984649 10.48243657 28.60877645 8.13402017 31.125 4.875 C35.16639912 0.1947774 35.16639912 0.1947774 38.80859375 -0.65625 C41.27934333 -0.62821313 43.57364965 -0.45589046 46 0 C46 0.66 46 1.32 46 2 C45.319375 2.53625 44.63875 3.0725 43.9375 3.625 C40.76132956 6.19296759 38.28230554 8.99302899 35.6484375 12.09765625 C34.16271808 13.81221871 32.62548911 15.41884241 31 17 C32.36242426 20.06713244 33.89699705 22.11840293 36.3125 24.4375 C36.93640625 25.04464844 37.5603125 25.65179688 38.203125 26.27734375 C38.79609375 26.84582031 39.3890625 27.41429687 40 28 C43.91260704 31.8171776 47.49089964 35.81560885 51 40 C46.38896351 40.95088478 42.59196715 41.1360584 38 40 C32.82775298 36.24297803 28.90069325 31.00514486 25 26 C21.21927173 27.74380306 19.07438199 29.85921519 16.3125 33 C15.52488281 33.886875 14.73726562 34.77375 13.92578125 35.6875 C11.98581751 37.83776851 11.98581751 37.83776851 11 40 C7.37 40 3.74 40 0 40 C1.87920386 36.24159229 3.34645678 34.46641955 6.3125 31.625 C9.01784279 28.99359745 11.59158999 26.3944704 13.9375 23.4375 C14.618125 22.633125 15.29875 21.82875 16 21 C16.66 21 17.32 21 18 21 C14.70039676 14.92178351 9.87915723 10.80834429 4.6484375 6.4296875 C3.01000462 5.00867699 1.4443978 3.61947632 0 2 C0 1.34 0 0.68 0 0 Z " fill="#0E0E0E" transform="translate(128,104)"/>
<path d="M0 0 C1.66611905 -0.042721 3.33382885 -0.04063832 5 0 C6.84408622 1.84408622 6.13739916 4.83898264 6.14526367 7.30810547 C6.14862228 7.96667542 6.1519809 8.62524536 6.15544128 9.30377197 C6.1649783 11.49159608 6.16689588 13.67934387 6.16796875 15.8671875 C6.17117985 17.38314852 6.17454381 18.89910922 6.17805481 20.41506958 C6.18405327 23.59784666 6.18589402 26.78059657 6.18530273 29.96337891 C6.18520117 34.04469806 6.1988443 38.12584302 6.21607494 42.2071209 C6.22718721 45.34006553 6.22922217 48.472968 6.22869301 51.60593033 C6.22987464 53.11064376 6.23430668 54.61535824 6.24202538 56.12005234 C6.25180814 58.22452771 6.24895404 60.32862417 6.24291992 62.43310547 C6.24434494 63.63144012 6.24576996 64.82977478 6.24723816 66.06442261 C6 69 6 69 4 72 C1.0640564 72.36076355 1.0640564 72.36076355 -2.74462891 72.34057617 C-3.43742447 72.34101425 -4.13022003 72.34145233 -4.8440094 72.34190369 C-7.13847851 72.33981032 -9.43222074 72.31645468 -11.7265625 72.29296875 C-13.31553752 72.28737471 -14.90451771 72.28310371 -16.49349976 72.28010559 C-20.67922203 72.26864158 -24.86463286 72.23916131 -29.05023193 72.20599365 C-33.31990343 72.17532611 -37.58962516 72.16160737 -41.859375 72.14648438 C-50.23972639 72.11429284 -58.61982447 72.06307803 -67 72 C-67 71.34 -67 70.68 -67 70 C-58.55095376 68.34625128 -50.39669159 67.67299063 -41.796875 67.5859375 C-40.5930719 67.56657135 -39.3892688 67.5472052 -38.14898682 67.5272522 C-34.3493939 67.46804667 -30.54976971 67.42130924 -26.75 67.375 C-24.15493558 67.33676581 -21.55988311 67.29771103 -18.96484375 67.2578125 C-12.64332763 67.16239436 -6.32175224 67.07814829 0 67 C0 63.7 0 60.4 0 57 C-0.99 57.495 -0.99 57.495 -2 58 C-3.53668865 58.22467831 -5.07968054 58.40796805 -6.625 58.5625 C-7.44226563 58.64628906 -8.25953125 58.73007813 -9.1015625 58.81640625 C-9.72804688 58.87699219 -10.35453125 58.93757813 -11 59 C-11.33 60.32 -11.66 61.64 -12 63 C-14.31 63 -16.62 63 -19 63 C-19.495 61.02 -19.495 61.02 -20 59 C-18.02 58.505 -18.02 58.505 -16 58 C-15.67 56.02 -15.34 54.04 -15 52 C-14.33613281 51.96261719 -13.67226563 51.92523438 -12.98828125 51.88671875 C-12.10527344 51.82097656 -11.22226562 51.75523438 -10.3125 51.6875 C-9.44238281 51.62949219 -8.57226562 51.57148437 -7.67578125 51.51171875 C-4.31119225 50.8682718 -2.53763354 50.356374 0 48 C0.62443912 44.92060083 0.46962445 41.93806782 0.3125 38.8125 C0.28994141 37.96751953 0.26738281 37.12253906 0.24414062 36.25195312 C0.18524963 34.16721202 0.09556798 32.08338196 0 30 C-0.66 29.67 -1.32 29.34 -2 29 C-2 29.66 -2 30.32 -2 31 C-2.66 30.67 -3.32 30.34 -4 30 C-3.67 28.35 -3.34 26.7 -3 25 C-1.68 25 -0.36 25 1 25 C1 17.74 1 10.48 1 3 C0.01 2.505 0.01 2.505 -1 2 C-0.67 1.34 -0.34 0.68 0 0 Z " fill="#BA1A1E" transform="translate(297,17)"/>
<path d="M0 0 C1.12350861 0.00848969 1.12350861 0.00848969 2.26971436 0.01715088 C4.654427 0.03948443 7.03761908 0.08967114 9.421875 0.140625 C11.04164491 0.16069409 12.66143846 0.17894415 14.28125 0.1953125 C18.24537466 0.23933876 22.20836732 0.30834202 26.171875 0.390625 C26.171875 2.370625 26.171875 4.350625 26.171875 6.390625 C15.941875 6.390625 5.711875 6.390625 -4.828125 6.390625 C-4.828125 8.370625 -4.828125 10.350625 -4.828125 12.390625 C-3.64053589 12.36705933 -3.64053589 12.36705933 -2.42895508 12.34301758 C1.16708195 12.28055801 4.7630047 12.24159865 8.359375 12.203125 C9.60525391 12.17798828 10.85113281 12.15285156 12.13476562 12.12695312 C13.33681641 12.11728516 14.53886719 12.10761719 15.77734375 12.09765625 C16.88231201 12.0819458 17.98728027 12.06623535 19.12573242 12.05004883 C22.57397674 12.43558228 24.44028299 13.27460741 27.171875 15.390625 C27.80078125 18.203125 27.80078125 18.203125 27.734375 21.390625 C27.73566406 22.4425 27.73695313 23.494375 27.73828125 24.578125 C27.171875 27.390625 27.171875 27.390625 25.6394043 29.0480957 C22.18062524 30.92994255 18.95840658 30.76327284 15.125 30.68359375 C14.35379822 30.67934891 13.58259644 30.67510406 12.7880249 30.67073059 C10.33228185 30.65397883 7.87736871 30.61633439 5.421875 30.578125 C3.75391813 30.56307357 2.08594835 30.54938597 0.41796875 30.53710938 C-3.66438078 30.50408694 -7.74611232 30.45232984 -11.828125 30.390625 C-11.828125 28.410625 -11.828125 26.430625 -11.828125 24.390625 C-1.268125 24.390625 9.291875 24.390625 20.171875 24.390625 C20.171875 22.080625 20.171875 19.770625 20.171875 17.390625 C19.30908936 17.40633545 18.44630371 17.4220459 17.55737305 17.43823242 C14.35378233 17.48938455 11.15039985 17.5269866 7.9465332 17.55541992 C6.56039581 17.57049897 5.17430606 17.5909655 3.78833008 17.61694336 C1.79529354 17.65336216 -0.19809223 17.66875518 -2.19140625 17.68359375 C-3.39063721 17.6993042 -4.58986816 17.71501465 -5.82543945 17.73120117 C-8.828125 17.390625 -8.828125 17.390625 -10.71582031 16.01855469 C-12.24817781 13.77585061 -12.26156668 12.15190767 -12.265625 9.453125 C-12.28496094 8.59847656 -12.30429687 7.74382812 -12.32421875 6.86328125 C-10.97539667 0.14041214 -5.90670434 -0.16865016 0 0 Z " fill="#151616" transform="translate(377.828125,113.609375)"/>
<path d="M0 0 C1.39456867 0.00574201 2.78910972 0.01875397 4.18359375 0.03515625 C6.63796875 0.05578125 9.09234375 0.07640625 11.62109375 0.09765625 C11.29109375 8.34765625 10.96109375 16.59765625 10.62109375 25.09765625 C16.56109375 25.09765625 22.50109375 25.09765625 28.62109375 25.09765625 C28.62109375 27.07765625 28.62109375 29.05765625 28.62109375 31.09765625 C28.29109375 31.09765625 27.96109375 31.09765625 27.62109375 31.09765625 C27.62109375 29.44765625 27.62109375 27.79765625 27.62109375 26.09765625 C23.33109375 26.09765625 19.04109375 26.09765625 14.62109375 26.09765625 C14.68296875 27.35578125 14.74484375 28.61390625 14.80859375 29.91015625 C14.81550476 33.8148766 14.81550476 33.8148766 13.24609375 36.09765625 C11.62109375 37.09765625 11.62109375 37.09765625 9.62109375 37.09765625 C9.29109375 38.08765625 8.96109375 39.07765625 8.62109375 40.09765625 C6.55859375 40.78515625 6.55859375 40.78515625 4.62109375 41.09765625 C4.62109375 41.75765625 4.62109375 42.41765625 4.62109375 43.09765625 C0.99109375 43.75765625 -2.63890625 44.41765625 -6.37890625 45.09765625 C-6.37890625 44.10765625 -6.37890625 43.11765625 -6.37890625 42.09765625 C-5.71890625 42.09765625 -5.05890625 42.09765625 -4.37890625 42.09765625 C-4.38414307 40.86088135 -4.38937988 39.62410645 -4.39477539 38.34985352 C-4.41282186 33.778409 -4.42433696 29.20696766 -4.43383789 24.63549805 C-4.43887892 22.65372184 -4.44571163 20.67194936 -4.4543457 18.69018555 C-4.4664214 15.84813516 -4.4721367 13.00613378 -4.4765625 10.1640625 C-4.48172379 9.27239883 -4.48688507 8.38073517 -4.49220276 7.46205139 C-4.49239802 5.34025024 -4.44100655 3.21854845 -4.37890625 1.09765625 C-3.37890625 0.09765625 -3.37890625 0.09765625 0 0 Z " fill="#E86362" transform="translate(235.37890625,42.90234375)"/>
<path d="M0 0 C2.64 0 5.28 0 8 0 C8 6.93 8 13.86 8 21 C9.711875 19.9275 11.42375 18.855 13.1875 17.75 C14.15042969 17.14671875 15.11335938 16.5434375 16.10546875 15.921875 C19.03189695 14.07139115 19.03189695 14.07139115 21.53125 11.78125 C24.42257032 9.69510749 25.80394714 9.56287718 29.3125 9.75 C30.19550781 9.78609375 31.07851563 9.8221875 31.98828125 9.859375 C32.98408203 9.92898437 32.98408203 9.92898437 34 10 C34 10.66 34 11.32 34 12 C31.83984375 13.55078125 31.83984375 13.55078125 28.9375 15.3125 C24.49020188 18.05902261 20.21383819 20.909852 16 24 C17.22348769 27.67046306 18.4043499 28.24385138 21.5625 30.375 C22.45839844 30.9834375 23.35429687 31.591875 24.27734375 32.21875 C26.70608554 33.80771163 29.15334851 35.3539837 31.625 36.875 C32.73875 37.57625 33.8525 38.2775 35 39 C35 39.33 35 39.66 35 40 C28.10442165 40.96031265 23.7937386 40.40627553 18.125 36.1875 C17.26132812 35.47980469 16.39765625 34.77210938 15.5078125 34.04296875 C13.10844955 32.08834753 10.68666039 30.52629273 8 29 C8 32.63 8 36.26 8 40 C5.36 40 2.72 40 0 40 C0 26.8 0 13.6 0 0 Z " fill="#151616" transform="translate(330,104)"/>
<path d="M0 0 C1.65 0 3.3 0 5 0 C5 5.94 5 11.88 5 18 C3.35 18 1.7 18 0 18 C0 15.69 0 13.38 0 11 C-3.63 11.33 -7.26 11.66 -11 12 C-11.33 18.6 -11.66 25.2 -12 32 C-8.04 32 -4.08 32 0 32 C0 29.69 0 27.38 0 25 C1.65 25 3.3 25 5 25 C5 31.27 5 37.54 5 44 C3.35 44 1.7 44 0 44 C0 41.69 0 39.38 0 37 C-5.94 37 -11.88 37 -18 37 C-18.02702297 33.60411312 -18.0468505 30.20844234 -18.0625 26.8125 C-18.07087891 25.85279297 -18.07925781 24.89308594 -18.08789062 23.90429688 C-18.09111328 22.97294922 -18.09433594 22.04160156 -18.09765625 21.08203125 C-18.10289307 20.22843018 -18.10812988 19.3748291 -18.11352539 18.49536133 C-18 16 -18 16 -17 11 C-21.29 11 -25.58 11 -30 11 C-30 9.68 -30 8.36 -30 7 C-20.1 7 -10.2 7 0 7 C0 4.69 0 2.38 0 0 Z " fill="#F0C3C1" transform="translate(264,31)"/>
<path d="M0 0 C0.02578125 0.68707031 0.0515625 1.37414062 0.078125 2.08203125 C0.13484375 2.98308594 0.1915625 3.88414063 0.25 4.8125 C0.29640625 5.70582031 0.3428125 6.59914063 0.390625 7.51953125 C0.78803616 10.07777829 0.78803616 10.07777829 2.65820312 11.62304688 C5.61278593 13.36031199 7.6616114 13.42798067 11.078125 13.51171875 C12.81835938 13.56489258 12.81835938 13.56489258 14.59375 13.61914062 C15.8003125 13.64169922 17.006875 13.66425781 18.25 13.6875 C19.47203125 13.72166016 20.6940625 13.75582031 21.953125 13.79101562 C24.96865846 13.87347162 27.98390194 13.94263201 31 14 C31 15.65 31 17.3 31 19 C19.12 19.33 7.24 19.66 -5 20 C-5 20.66 -5 21.32 -5 22 C-9.18358477 21.44151174 -12.02629569 18.95553698 -15.25 16.4375 C-15.80429687 16.01275391 -16.35859375 15.58800781 -16.9296875 15.15039062 C-18.29089411 14.10601659 -19.64605833 13.05377536 -21 12 C-19.66376623 7.99129869 -17.04706089 6.63659365 -13.6875 4.375 C-13.10548828 3.96765625 -12.52347656 3.5603125 -11.92382812 3.140625 C-4.93004116 -1.64334705 -4.93004116 -1.64334705 0 0 Z " fill="#F5F5F6" transform="translate(366,118)"/>
<path d="M0 0 C4.87354795 0.406129 8.04946736 1.45865829 12.40234375 3.8125 C18.33551007 6.5248046 24.75515407 8.15079805 31 10 C31 10.66 31 11.32 31 12 C31.9590625 12.1546875 31.9590625 12.1546875 32.9375 12.3125 C34.4534375 12.6528125 34.4534375 12.6528125 36 13 C36.74765625 13.16113281 37.4953125 13.32226562 38.265625 13.48828125 C40.69931779 14.12810693 42.78747416 14.79715857 45 16 C47.06310654 19.97339038 47.28153486 22.71400603 46.125 26.9375 C45.75375 27.948125 45.3825 28.95875 45 30 C44.01 30 43.02 30 42 30 C42 29.34 42 28.68 42 28 C40.68 28 39.36 28 38 28 C37.505 26.515 37.505 26.515 37 25 C33.99992729 23.29144978 33.99992729 23.29144978 31 22 C31.33 20.68 31.66 19.36 32 18 C31.01 18 30.02 18 29 18 C29 18.99 29 19.98 29 21 C23.1558248 19.55686742 18.14772646 18.17947811 13 15 C9.83285028 14.69836669 8.04275692 14.98574769 5 16 C5 15.01 5 14.02 5 13 C3.02 12.01 1.04 11.02 -1 10 C-1 9.34 -1 8.68 -1 8 C4.52706913 8.72724594 9.69960141 10.33445973 15 12 C15.33 11.67 15.66 11.34 16 11 C15.484375 10.87625 14.96875 10.7525 14.4375 10.625 C11.27297649 9.81358372 8.13875015 8.9054087 5 8 C5.33 6.68 5.66 5.36 6 4 C5.195625 3.71125 4.39125 3.4225 3.5625 3.125 C1 2 1 2 0 0 Z " fill="#E2E3E3" transform="translate(27,12)"/>
<path d="M0 0 C4.32392847 -0.06903966 8.6459293 -0.12871715 12.9699707 -0.16479492 C14.43943782 -0.17984066 15.90886034 -0.20028238 17.37817383 -0.22631836 C19.4957177 -0.26288955 21.61266565 -0.27976801 23.73046875 -0.29296875 C25.63928833 -0.31653442 25.63928833 -0.31653442 27.58666992 -0.34057617 C31.23889678 0.02383671 33.12589509 0.75316916 36 3 C36.48828125 5.26171875 36.48828125 5.26171875 36.3125 7.6875 C36.26738281 8.49574219 36.22226562 9.30398437 36.17578125 10.13671875 C36.11777344 10.75160156 36.05976563 11.36648437 36 12 C33.36 12 30.72 12 28 12 C28 10.02 28 8.04 28 6 C21.4 6 14.8 6 8 6 C8 13.92 8 21.84 8 30 C5.36 30 2.72 30 0 30 C0 20.1 0 10.2 0 0 Z " fill="#131314" transform="translate(291,114)"/>
<path d="M0 0 C7.59 0 15.18 0 23 0 C23 5.94 23 11.88 23 18 C15.41 18 7.82 18 0 18 C0 12.06 0 6.12 0 0 Z " fill="#F7F7F7" transform="translate(256,120)"/>
<path d="M0 0 C0.33 0.66 0.66 1.32 1 2 C2.98 1.67 4.96 1.34 7 1 C7.33 1.66 7.66 2.32 8 3 C9.85744207 3.61067144 9.85744207 3.61067144 12 4 C14.1875 4.4375 14.1875 4.4375 16 5 C16.33 5.66 16.66 6.32 17 7 C18.98 7 20.96 7 23 7 C23 5.68 23 4.36 23 3 C26.875 4.875 26.875 4.875 28 6 C30.32817964 6.36760731 32.6618385 6.70241581 35 7 C35.33 5.35 35.66 3.7 36 2 C39.63 1.67 43.26 1.34 47 1 C47 4.3 47 7.6 47 11 C43.50612122 11.78576156 40.23712355 12.14437989 36.65893555 12.20532227 C35.6182341 12.22526749 34.57753265 12.24521271 33.5052948 12.26576233 C31.83784966 12.29083107 31.83784966 12.29083107 30.13671875 12.31640625 C28.98959915 12.33718735 27.84247955 12.35796844 26.66059875 12.37937927 C23.00295902 12.44466619 19.34524862 12.50366286 15.6875 12.5625 C13.20507087 12.60570504 10.72264884 12.64931997 8.24023438 12.69335938 C2.16023055 12.80032622 -3.91984329 12.90213114 -10 13 C-10 12.34 -10 11.68 -10 11 C-9.1646875 10.6596875 -9.1646875 10.6596875 -8.3125 10.3125 C-4.65660676 8.23753357 -1.6048052 5.72136865 -0.1875 1.6875 C-0.125625 1.130625 -0.06375 0.57375 0 0 Z " fill="#DE1E1C" transform="translate(250,73)"/>
<path d="M0 0 C0.99 0.33 1.98 0.66 3 1 C3.13481759 3.93902349 3.23399416 6.87189559 3.3125 9.8125 C3.35439453 10.64587891 3.39628906 11.47925781 3.43945312 12.33789062 C3.48593057 14.65246749 3.45534378 16.72958544 3 19 C0.30465304 21.61607205 -1.40372288 21.9438886 -5.11328125 22.29296875 C-6.16902344 22.25816406 -7.22476562 22.22335938 -8.3125 22.1875 C-9.91544922 22.14689453 -9.91544922 22.14689453 -11.55078125 22.10546875 C-12.35902344 22.07066406 -13.16726563 22.03585938 -14 22 C-14 23.98 -14 25.96 -14 28 C-15.65 28 -17.3 28 -19 28 C-19 22.06 -19 16.12 -19 10 C-17.02 10 -15.04 10 -13 10 C-12.690625 9.21625 -12.38125 8.4325 -12.0625 7.625 C-11 5 -11 5 -10 3 C-7.71484375 2.5859375 -7.71484375 2.5859375 -4.9375 2.375 C-4.01839844 2.30023438 -3.09929687 2.22546875 -2.15234375 2.1484375 C-1.44207031 2.09945312 -0.73179687 2.05046875 0 2 C0 1.34 0 0.68 0 0 Z " fill="#DD1C1D" transform="translate(295,46)"/>
<path d="M0 0 C-3.17171153 2.11447436 -4.00122603 2.25754152 -7.63916016 2.30297852 C-8.57668121 2.31962051 -9.51420227 2.33626251 -10.48013306 2.35340881 C-11.99430313 2.36603004 -11.99430313 2.36603004 -13.5390625 2.37890625 C-14.5756601 2.39590073 -15.61225769 2.4128952 -16.68026733 2.43040466 C-19.99511618 2.48359716 -23.30995191 2.52386923 -26.625 2.5625 C-29.94712579 2.60636357 -33.26915219 2.65299926 -36.59115601 2.70530701 C-38.65994835 2.73737358 -40.72882889 2.76422899 -42.79776001 2.78553772 C-43.72897675 2.79902756 -44.66019348 2.8125174 -45.61962891 2.82641602 C-46.85514999 2.84068382 -46.85514999 2.84068382 -48.1156311 2.85523987 C-50.01228049 2.79532448 -50.01228049 2.79532448 -51 4 C-51.07325436 6.6986905 -51.09222351 9.36502556 -51.0625 12.0625 C-51.041875 14.681875 -51.02125 17.30125 -51 20 C-40.77 20.33 -30.54 20.66 -20 21 C-20 19.35 -20 17.7 -20 16 C-19.67 16 -19.34 16 -19 16 C-19 17.98 -19 19.96 -19 22 C-28.9 22 -38.8 22 -49 22 C-49 23.32 -49 24.64 -49 26 C-44.71 26 -40.42 26 -36 26 C-36 26.33 -36 26.66 -36 27 C-40.95 27.33 -45.9 27.66 -51 28 C-51.33 41.53 -51.66 55.06 -52 69 C-52.66 69 -53.32 69 -54 69 C-53.67 70.32 -53.34 71.64 -53 73 C-53.66 73 -54.32 73 -55 73 C-55.80043494 68.80143733 -56.1120441 64.8703704 -56.06933594 60.59912109 C-56.05892273 59.35117767 -56.04850952 58.10323425 -56.03778076 56.81747437 C-56.02053283 55.46945487 -56.00271732 54.12144254 -55.984375 52.7734375 C-55.96766253 51.37912047 -55.95100074 49.98480283 -55.93438721 48.59048462 C-55.89803705 45.67711354 -55.85682916 42.76385331 -55.81298828 39.85058594 C-55.7578511 36.12052014 -55.72139406 32.3905183 -55.68935776 28.66019249 C-55.66148809 25.78440531 -55.62043785 22.90891479 -55.57575226 20.03334427 C-55.55658677 18.65791298 -55.54227551 17.28240501 -55.53295135 15.9068718 C-55.51860621 13.98512391 -55.48386914 12.06356101 -55.44824219 10.14208984 C-55.43412292 9.04988129 -55.42000366 7.95767273 -55.40545654 6.83236694 C-54.9447028 3.61371459 -54.37473003 2.21360137 -52 0 C-49.79919434 -0.52571106 -49.79919434 -0.52571106 -47.20898438 -0.56176758 C-46.2378772 -0.5847139 -45.26677002 -0.60766022 -44.26623535 -0.63130188 C-43.21931519 -0.63566757 -42.17239502 -0.64003326 -41.09375 -0.64453125 C-39.47938049 -0.67289314 -39.47938049 -0.67289314 -37.83239746 -0.701828 C-35.5561994 -0.73834891 -33.27983411 -0.76547118 -31.00341797 -0.78393555 C-27.51344644 -0.81239037 -24.02470909 -0.86743388 -20.53515625 -0.92773438 C-18.32554284 -0.95988298 -16.115907 -0.99053245 -13.90625 -1.01953125 C-12.85932983 -1.0340181 -11.81240967 -1.04850494 -10.73376465 -1.06343079 C-9.76265747 -1.0706163 -8.79155029 -1.07780182 -7.79101562 -1.08520508 C-6.93624634 -1.09312576 -6.08147705 -1.10104645 -5.20080566 -1.10920715 C-3 -1 -3 -1 0 0 Z " fill="#F09291" transform="translate(283,16)"/>
<path d="M0 0 C8.91 0 17.82 0 27 0 C27 1.98 27 3.96 27 6 C27.99 6.33 28.98 6.66 30 7 C29.45276317 10.37462715 28.9451 12.08235 27 15 C24.9375 16.375 24.9375 16.375 22 17 C17.54102398 16.04394539 13.79168237 14.52778825 10 12 C9.01 12 8.02 12 7 12 C4.6485148 11.04346365 2.31254012 10.04718798 0 9 C0 6.03 0 3.06 0 0 Z " fill="#DFDEDC" transform="translate(74,0)"/>
<path d="M0 0 C0.66 0.33 1.32 0.66 2 1 C2 8.26 2 15.52 2 23 C0.02 23.33 -1.96 23.66 -4 24 C-4 22.35 -4 20.7 -4 19 C-7.3 18.67 -10.6 18.34 -14 18 C-14 15.69 -14 13.38 -14 11 C-15.98 11 -17.96 11 -20 11 C-19.66603817 7.21509929 -18.50533832 4.07204447 -16 1.1640625 C-11.36867497 -1.5315134 -5.15688388 -0.51634198 0 0 Z " fill="#DD2422" transform="translate(296,19)"/>
<path d="M0 0 C1.98 0 3.96 0 6 0 C5.93941406 0.8765625 5.87882812 1.753125 5.81640625 2.65625 C5.17225654 12.40768558 4.72266093 22.15639629 4.39282227 31.92382812 C4.35600342 32.91318359 4.31918457 33.90253906 4.28125 34.921875 C4.25095703 35.80456055 4.22066406 36.68724609 4.18945312 37.59667969 C4 40 4 40 3.50672913 41.9095459 C2.66596649 45.37801775 2.63866445 48.93156426 2.46484375 52.484375 C2.40037804 53.70776581 2.40037804 53.70776581 2.33460999 54.95587158 C2.1985622 57.55373871 2.06796025 60.15184687 1.9375 62.75 C1.84606237 64.51434157 1.75426962 66.27866478 1.66210938 68.04296875 C1.43728909 72.36177708 1.21735158 76.68080962 1 81 C0.01 80.67 -0.98 80.34 -2 80 C-2 61.52 -2 43.04 -2 24 C-1.34 24 -0.68 24 0 24 C0 16.08 0 8.16 0 0 Z " fill="#D3D6D9" transform="translate(466,0)"/>
<path d="M0 0 C0.99 0.495 0.99 0.495 2 1 C2.04631323 9.81426911 2.08186401 18.62849642 2.10362434 27.4428606 C2.1140675 31.53559983 2.12823636 35.6282559 2.15087891 39.72094727 C2.17258839 43.66963711 2.18456462 47.61824689 2.18975449 51.56699181 C2.19345366 53.07450305 2.20067711 54.58200986 2.21146011 56.08948708 C2.22595004 58.19883363 2.22797902 60.30784812 2.22705078 62.41723633 C2.231492 63.61858719 2.23593323 64.81993805 2.24050903 66.05769348 C2 69 2 69 0 72 C-2.97390747 72.36076355 -2.97390747 72.36076355 -6.83642578 72.34057617 C-7.89024948 72.34123329 -7.89024948 72.34123329 -8.96536255 72.34190369 C-11.29229326 72.33981021 -13.61850736 72.31645395 -15.9453125 72.29296875 C-17.55670783 72.28737476 -19.16810825 72.28310373 -20.7795105 72.28010559 C-25.0244145 72.26864126 -29.26901142 72.23916068 -33.51379395 72.20599365 C-37.84378912 72.17532682 -42.17383382 72.16160752 -46.50390625 72.14648438 C-55.00274521 72.11429227 -63.50133443 72.06307704 -72 72 C-72.33 71.34 -72.66 70.68 -73 70 C-37.855 69.505 -37.855 69.505 -2 69 C-0.58869497 66.17738993 -0.83605673 63.77918516 -0.79467773 60.62255859 C-0.78477814 59.96877731 -0.77487854 59.31499603 -0.76467896 58.6414032 C-0.73305289 56.47711833 -0.70830228 54.3128115 -0.68359375 52.1484375 C-0.66302517 50.64913355 -0.64202872 49.14983541 -0.62062073 47.65054321 C-0.56539012 43.70174869 -0.51598524 39.75290174 -0.46777344 35.80401611 C-0.41756561 31.77554654 -0.3618758 27.74715322 -0.30664062 23.71875 C-0.19904697 15.81256444 -0.09760471 7.90631515 0 0 Z " fill="#B5AEAF" transform="translate(303,19)"/>
<path d="M0 0 C8.58 0 17.16 0 26 0 C26 3.63 26 7.26 26 11 C19.73 11 13.46 11 7 11 C7 13.64 7 16.28 7 19 C13.27 19 19.54 19 26 19 C26 22.63 26 26.26 26 30 C25.67 30 25.34 30 25 30 C25 26.7 25 23.4 25 20 C18.73 20 12.46 20 6 20 C5.67 17.36 5.34 14.72 5 12 C4.67 11.34 4.34 10.68 4 10 C4.66666667 8.66666667 5.33333333 7.33333333 6 6 C5.67 5.34 5.34 4.68 5 4 C4.01 4 3.02 4 2 4 C1.67 3.01 1.34 2.02 1 1 C1 2.98 1 4.96 1 7 C0.67 7 0.34 7 0 7 C0 4.69 0 2.38 0 0 Z " fill="#E7E7E9" transform="translate(417,106)"/>
<path d="M0 0 C0.33 0 0.66 0 1 0 C1 4.95 1 9.9 1 15 C-0.65 15 -2.3 15 -4 15 C-5.86551426 18.58752742 -7.42535928 22.27812193 -9 26 C-8.01 26.33 -7.02 26.66 -6 27 C-6 25.02 -6 23.04 -6 21 C-5.67 21 -5.34 21 -5 21 C-5 23.31 -5 25.62 -5 28 C-8.96 28 -12.92 28 -17 28 C-17.02683436 24.68744674 -17.0467578 21.37510817 -17.0625 18.0625 C-17.07087891 17.11697266 -17.07925781 16.17144531 -17.08789062 15.19726562 C-17.09111328 14.29814453 -17.09433594 13.39902344 -17.09765625 12.47265625 C-17.10289307 11.64000244 -17.10812988 10.80734863 -17.11352539 9.94946289 C-17 8 -17 8 -16 7 C-14.14712498 6.92773498 -12.29166122 6.9161878 -10.4375 6.9375 C-9.42558594 6.94652344 -8.41367187 6.95554687 -7.37109375 6.96484375 C-6.19740234 6.98224609 -6.19740234 6.98224609 -5 7 C-5 9.31 -5 11.62 -5 14 C-3.35 14 -1.7 14 0 14 C0 9.38 0 4.76 0 0 Z " fill="#C56364" transform="translate(269,35)"/>
<path d="M0 0 C13.86 0 27.72 0 42 0 C42 3.3 42 6.6 42 10 C30.74708287 9.18160603 19.8107669 6.09797244 9 3 C7.35807097 2.60825846 5.71267205 2.23042167 4.0625 1.875 C3.29035156 1.70742188 2.51820313 1.53984375 1.72265625 1.3671875 C1.15417969 1.24601563 0.58570313 1.12484375 0 1 C0 0.67 0 0.34 0 0 Z " fill="#DBE1E8" transform="translate(498,0)"/>
<path d="M0 0 C0.99 0.495 0.99 0.495 2 1 C2.04631323 9.81426911 2.08186401 18.62849642 2.10362434 27.4428606 C2.1140675 31.53559983 2.12823636 35.6282559 2.15087891 39.72094727 C2.17258839 43.66963711 2.18456462 47.61824689 2.18975449 51.56699181 C2.19345366 53.07450305 2.20067711 54.58200986 2.21146011 56.08948708 C2.22595004 58.19883363 2.22797902 60.30784812 2.22705078 62.41723633 C2.231492 63.61858719 2.23593323 64.81993805 2.24050903 66.05769348 C2 69 2 69 0 72 C-2.9359436 72.36076355 -2.9359436 72.36076355 -6.74462891 72.34057617 C-7.43742447 72.34101425 -8.13022003 72.34145233 -8.8440094 72.34190369 C-11.13847851 72.33981032 -13.43222074 72.31645468 -15.7265625 72.29296875 C-17.31553752 72.28737471 -18.90451771 72.28310371 -20.49349976 72.28010559 C-24.67922203 72.26864158 -28.86463286 72.23916131 -33.05023193 72.20599365 C-37.31990343 72.17532611 -41.58962516 72.16160737 -45.859375 72.14648438 C-54.23972639 72.11429284 -62.61982447 72.06307803 -71 72 C-71 71.34 -71 70.68 -71 70 C-66.05 69.505 -66.05 69.505 -61 69 C-61 69.33 -61 69.66 -61 70 C-31.795 70.495 -31.795 70.495 -2 71 C-2 70.34 -2 69.68 -2 69 C-1.34 69 -0.68 69 0 69 C0 46.23 0 23.46 0 0 Z " fill="#7D5054" transform="translate(301,17)"/>
<path d="M0 0 C8.91 0 17.82 0 27 0 C27 2.97 27 5.94 27 9 C24.29892567 10.80071622 22.16230402 12.09475304 18.84375 11.82421875 C16.5272816 11.30459998 14.27199151 10.6878867 12 10 C10.94425781 9.70802734 10.94425781 9.70802734 9.8671875 9.41015625 C8.23950407 8.95875416 6.61882582 8.48220344 5 8 C5.33 6.68 5.66 5.36 6 4 C5.195625 3.71125 4.39125 3.4225 3.5625 3.125 C1 2 1 2 0 0 Z " fill="#DADDE0" transform="translate(104,0)"/>
<path d="M0 0 C0.33 0 0.66 0 1 0 C1 22.44 1 44.88 1 68 C0.34 68 -0.32 68 -1 68 C-1 68.66 -1 69.32 -1 70 C-21.13 70 -41.26 70 -62 70 C-59.38444935 67.38444935 -58.23481812 67.73464306 -54.58813477 67.69702148 C-53.45678604 67.68037949 -52.32543732 67.66373749 -51.1598053 67.64659119 C-49.93273361 67.63817703 -48.70566193 67.62976288 -47.44140625 67.62109375 C-46.18617661 67.60409927 -44.93094696 67.5871048 -43.63768005 67.56959534 C-40.29662275 67.52535865 -36.95568788 67.48908731 -33.61450195 67.45739746 C-28.90890316 67.41176911 -24.20345364 67.35577247 -19.49803162 67.29469299 C-16.99179639 67.26269585 -14.48548973 67.23581838 -11.97914124 67.21446228 C-10.84464035 67.20097244 -9.71013947 67.1874826 -8.54125977 67.17358398 C-7.54135513 67.16407211 -6.5414505 67.15456024 -5.51124573 67.14476013 C-2.87154918 67.10224289 -2.87154918 67.10224289 0 66 C0 44.22 0 22.44 0 0 Z " fill="#7D171B" transform="translate(300,18)"/>
<path d="M0 0 C3.3 0 6.6 0 10 0 C10 3.96 10 7.92 10 12 C9.01 12 8.02 12 7 12 C6.34 12.66 5.68 13.32 5 14 C5 13.34 5 12.68 5 12 C4.01 12 3.02 12 2 12 C2 12.99 2 13.98 2 15 C0.02 15 -1.96 15 -4 15 C-4.33 12.69 -4.66 10.38 -5 8 C-5.66 8 -6.32 8 -7 8 C-7 7.34 -7 6.68 -7 6 C-4.36 4.68 -1.72 3.36 1 2 C0.67 1.34 0.34 0.68 0 0 Z " fill="#E61D18" transform="translate(288,20)"/>
<path d="M0 0 C1.65 0 3.3 0 5 0 C5.33 0.99 5.66 1.98 6 3 C5.67 3.66 5.34 4.32 5 5 C7.97 5.33 10.94 5.66 14 6 C14 6.66 14 7.32 14 8 C15.32 8.33 16.64 8.66 18 9 C14.14104159 10.48421477 11.78130395 9.36126942 8 8 C6.00395679 7.64373801 4.00420334 7.30705065 2 7 C2.03480469 8.11632813 2.06960938 9.23265625 2.10546875 10.3828125 C2.37059997 23.15744208 1.02021418 35.39694397 -1 48 C-3.12986948 44.80519578 -3.22865206 44.25538111 -3.01171875 40.6484375 C-2.96466797 39.79636719 -2.91761719 38.94429687 -2.86914062 38.06640625 C-2.80919922 37.17824219 -2.74925781 36.29007813 -2.6875 35.375 C-2.63916016 34.51003906 -2.59082031 33.64507812 -2.54101562 32.75390625 C-2.20876683 27.14352779 -1.6622034 21.58062009 -1 16 C-1.66 15.67 -2.32 15.34 -3 15 C-2.67 14.67 -2.34 14.34 -2 14 C-1.66659529 11.04195427 -1.66659529 11.04195427 -2 8 C-2.99 7.34 -3.98 6.68 -5 6 C-4.34 4.68 -3.68 3.36 -3 2 C-3 2.66 -3 3.32 -3 4 C-2.34 4 -1.68 4 -1 4 C-0.67 2.68 -0.34 1.36 0 0 Z " fill="#D7DBDE" transform="translate(395,0)"/>
<path d="M0 0 C1.32 0 2.64 0 4 0 C4 5.61 4 11.22 4 17 C3.01 17 2.02 17 1 17 C1 14.69 1 12.38 1 10 C-0.09441406 10.10828125 -0.09441406 10.10828125 -1.2109375 10.21875 C-10.82381668 11.07322815 -20.35650228 11.09740907 -30 11 C-30 9.68 -30 8.36 -30 7 C-20.1 7 -10.2 7 0 7 C0 4.69 0 2.38 0 0 Z " fill="#FCEAE7" transform="translate(264,31)"/>
<path d="M0 0 C0.495 0.99 0.495 0.99 1 2 C1.99 2 2.98 2 4 2 C4.495 6.95 4.495 6.95 5 12 C4.32888184 11.18958252 3.65776367 10.37916504 2.96630859 9.54418945 C-2.36967415 5.14076604 -9.90380955 6.27295896 -16.4609375 6.29296875 C-17.97695902 6.27984408 -19.49296307 6.26453749 -21.00894165 6.24714661 C-24.98412338 6.20737262 -28.95884688 6.19711117 -32.9342041 6.19311523 C-36.99664137 6.18376929 -41.05881102 6.14634672 -45.12109375 6.11132812 C-53.08073421 6.0468299 -61.04011045 6.01352633 -69 6 C-69 5.34 -69 4.68 -69 4 C-67.60554251 3.80252781 -66.20931848 3.61751413 -64.8125 3.4375 C-63.64654297 3.28087891 -63.64654297 3.28087891 -62.45703125 3.12109375 C-60 3 -60 3 -57.97412109 3.48193359 C-53.63758235 4.23732148 -49.35104574 4.16271301 -44.95703125 4.16796875 C-43.99222336 4.17129715 -43.02741547 4.17462555 -42.03337097 4.17805481 C-40.00019812 4.18310577 -37.96701701 4.1854637 -35.93383789 4.18530273 C-32.81317718 4.18749952 -29.69286432 4.20570261 -26.57226562 4.22460938 C-24.59635538 4.22754154 -22.62044345 4.22952752 -20.64453125 4.23046875 C-19.7080928 4.23765427 -18.77165436 4.24483978 -17.80683899 4.25224304 C-16.50990364 4.2476281 -16.50990364 4.2476281 -15.18676758 4.24291992 C-14.04356804 4.24505745 -14.04356804 4.24505745 -12.87727356 4.24723816 C-10.75578059 4.1615965 -10.75578059 4.1615965 -9 2 C-3.43181818 2.56818182 -3.43181818 2.56818182 -2 4 C-1.34 2.68 -0.68 1.36 0 0 Z " fill="#ECE3E1" transform="translate(300,8)"/>
<path d="M0 0 C1.65 0 3.3 0 5 0 C5 2.31 5 4.62 5 7 C8.63 7 12.26 7 16 7 C16.33 8.65 16.66 10.3 17 12 C13.04 12 9.08 12 5 12 C5 13.98 5 15.96 5 18 C3.35 18 1.7 18 0 18 C0 12.06 0 6.12 0 0 Z " fill="#F6C8C6" transform="translate(276,56)"/>
<path d="M0 0 C0.66 0 1.32 0 2 0 C2 5.61 2 11.22 2 17 C-2.47157772 18.11789443 -2.33579102 17.98914202 -6 16 C-8.3243602 15.30269194 -10.65673706 14.63087848 -13 14 C-13 13.34 -13 12.68 -13 12 C-14.98 12.33 -16.96 12.66 -19 13 C-19.33 11.02 -19.66 9.04 -20 7 C-15.71 7 -11.42 7 -7 7 C-6.67 8.65 -6.34 10.3 -6 12 C-3.03 12.495 -3.03 12.495 0 13 C0 8.71 0 4.42 0 0 Z " fill="#B92222" transform="translate(270,62)"/>
<path d="M0 0 C8.91 0 17.82 0 27 0 C26.67 0.66 26.34 1.32 26 2 C26.33 2.99 26.66 3.98 27 5 C18.09 5 9.18 5 0 5 C0 3.35 0 1.7 0 0 Z " fill="#000002" transform="translate(367,138)"/>
<path d="M0 0 C1.48693359 0.00386719 1.48693359 0.00386719 3.00390625 0.0078125 C3.99261719 0.00523438 4.98132813 0.00265625 6 0 C8.56640625 0.1328125 8.56640625 0.1328125 10.56640625 1.1328125 C10.19140625 3.5703125 10.19140625 3.5703125 9.56640625 6.1328125 C6.8576129 7.48720918 4.55707357 7.19782701 1.56640625 7.1328125 C1.27765625 7.9165625 0.98890625 8.7003125 0.69140625 9.5078125 C-0.43359375 12.1328125 -0.43359375 12.1328125 -2.43359375 14.1328125 C-2.43359375 13.4728125 -2.43359375 12.8128125 -2.43359375 12.1328125 C-3.42359375 12.1328125 -4.41359375 12.1328125 -5.43359375 12.1328125 C-6.09359375 10.4828125 -6.75359375 8.8328125 -7.43359375 7.1328125 C-6.11359375 7.1328125 -4.79359375 7.1328125 -3.43359375 7.1328125 C-3.45421875 6.1634375 -3.47484375 5.1940625 -3.49609375 4.1953125 C-3.41427784 0.18633298 -3.41427784 0.18633298 0 0 Z " fill="#B81C23" transform="translate(283.43359375,41.8671875)"/>
<path d="M0 0 C1.32 0 2.64 0 4 0 C4 2.31 4 4.62 4 7 C8.29 7 12.58 7 17 7 C17 8.32 17 9.64 17 11 C11.06 11.495 11.06 11.495 5 12 C4.67 13.98 4.34 15.96 4 18 C2.68 18 1.36 18 0 18 C0 12.06 0 6.12 0 0 Z " fill="#F9D7D2" transform="translate(276,31)"/>
<path d="M0 0 C0.83050873 0.00444122 1.66101746 0.00888245 2.51669312 0.01345825 C3.92792953 0.01368484 3.92792953 0.01368484 5.36767578 0.01391602 C6.38542084 0.02423859 7.40316589 0.03456116 8.45175171 0.04519653 C9.49213593 0.04802643 10.53252014 0.05085632 11.60443115 0.05377197 C14.93646615 0.064992 18.26823507 0.09009989 21.60018921 0.11550903 C23.85539367 0.12553648 26.11060233 0.13466273 28.36581421 0.14285278 C33.90236375 0.16493725 39.43875748 0.19843265 44.97518921 0.24050903 C42.07462458 3.14107366 39.04281285 2.59504157 35.15097046 2.65457153 C34.37134445 2.67393768 33.59171844 2.69330383 32.78846741 2.71325684 C30.28832026 2.77309966 27.78812302 2.81936936 25.28768921 2.86550903 C23.6216534 2.90370082 21.95563707 2.94275326 20.28964233 2.98269653 C8.31003943 3.25899562 8.31003943 3.25899562 3.13217163 3.18728638 C-0.05254851 3.08298187 -0.05254851 3.08298187 -3.02481079 4.24050903 C-2.69481079 7.87050903 -2.36481079 11.50050903 -2.02481079 15.24050903 C-3.01481079 15.73550903 -3.01481079 15.73550903 -4.02481079 16.24050903 C-4.078656 13.94909617 -4.11753166 11.65732715 -4.14981079 9.36550903 C-4.17301392 8.08933716 -4.19621704 6.81316528 -4.22012329 5.49832153 C-4.00805994 1.9611049 -3.72950358 0.44299413 0 0 Z " fill="#E97475" transform="translate(235.02481079101563,17.759490966796875)"/>
<path d="M0 0 C0.33 0 0.66 0 1 0 C1.05379226 2.95857409 1.09357093 5.91617721 1.125 8.875 C1.14175781 9.71675781 1.15851563 10.55851562 1.17578125 11.42578125 C1.18222656 12.23144531 1.18867188 13.03710938 1.1953125 13.8671875 C1.20578613 14.61081543 1.21625977 15.35444336 1.22705078 16.12060547 C1 18 1 18 -1 20 C-1.99 20 -2.98 20 -4 20 C-4.33 19.01 -4.66 18.02 -5 17 C-8.63 16.67 -12.26 16.34 -16 16 C-16.36923077 9.47692308 -16.36923077 9.47692308 -14.5 7.0625 C-14.005 6.711875 -13.51 6.36125 -13 6 C-13.33 8.31 -13.66 10.62 -14 13 C-10.04 12.34 -6.08 11.68 -2 11 C-1.34 7.37 -0.68 3.74 0 0 Z " fill="#D62A29" transform="translate(297,47)"/>
<path d="M0 0 C0 5.61 0 11.22 0 17 C-0.66 17 -1.32 17 -2 17 C-2 17.99 -2 18.98 -2 20 C-4.875 20.625 -4.875 20.625 -8 21 C-8.66 20.34 -9.32 19.68 -10 19 C-9.505 17.515 -9.505 17.515 -9 16 C-7.68 16 -6.36 16 -5 16 C-5 11.05 -5 6.1 -5 1 C-2 0 -2 0 0 0 Z " fill="#BA1F21" transform="translate(275,34)"/>
<path d="M0 0 C1.32 0 2.64 0 4 0 C4.66 1.65 5.32 3.3 6 5 C6.66 3.35 7.32 1.7 8 0 C8.99 0 9.98 0 11 0 C11 3.96 11 7.92 11 12 C10.34 12 9.68 12 9 12 C8.67 11.34 8.34 10.68 8 10 C7.67 10.66 7.34 11.32 7 12 C4.66666667 12 2.33333333 12 0 12 C0 8.04 0 4.08 0 0 Z " fill="#848484" transform="translate(254,155)"/>
<path d="M0 0 C2.4375 0.8125 2.4375 0.8125 4.4375 2.8125 C4.75 6.3125 4.75 6.3125 4.4375 9.8125 C1.4375 11.8125 1.4375 11.8125 -1.125 11.5625 C-3.5625 10.8125 -3.5625 10.8125 -5.5625 8.8125 C-5.89911952 5.6482765 -6.06193411 3.62736618 -4.375 0.875 C-2.5625 -0.1875 -2.5625 -0.1875 0 0 Z " fill="#696969" transform="translate(138.5625,155.1875)"/>
<path d="M0 0 C0.99 0 1.98 0 3 0 C3 5.61 3 11.22 3 17 C2.01 17 1.02 17 0 17 C-0.33 15.02 -0.66 13.04 -1 11 C-7.93 10.505 -7.93 10.505 -15 10 C-15 9.01 -15 8.02 -15 7 C-10.05 7 -5.1 7 0 7 C0 4.69 0 2.38 0 0 Z " fill="#FDF1EF" transform="translate(265,57)"/>
<path d="M0 0 C0.99 0.33 1.98 0.66 3 1 C2.93941406 1.804375 2.87882812 2.60875 2.81640625 3.4375 C2.37069316 9.69119758 1.98795033 15.93217968 1.78125 22.19921875 C1.74443115 23.26978516 1.7076123 24.34035156 1.66967773 25.44335938 C1.59887923 27.58634476 1.53574471 29.72959865 1.48071289 31.87304688 C1.4471167 32.86755859 1.41352051 33.86207031 1.37890625 34.88671875 C1.3538501 35.77576904 1.32879395 36.66481934 1.30297852 37.58081055 C0.98490854 40.12050063 0.27788041 41.80053742 -1 44 C-1.02487171 39.01953488 -1.04294081 34.03910658 -1.05493164 29.05859375 C-1.05993487 27.36718109 -1.06673952 25.67577269 -1.07543945 23.984375 C-1.08768185 21.54165589 -1.09326855 19.09899438 -1.09765625 16.65625 C-1.10539818 15.53700134 -1.10539818 15.53700134 -1.11329651 14.3951416 C-1.11380862 9.51244027 -0.69035046 4.83484201 0 0 Z " fill="#D8DBDE" transform="translate(469,0)"/>
<path d="M0 0 C0 1.65 0 3.3 0 5 C-0.495 3.02 -0.495 3.02 -1 1 C-2.65 1.33 -4.3 1.66 -6 2 C-6.33 3.65 -6.66 5.3 -7 7 C-16.9 7 -26.8 7 -37 7 C-37 6.67 -37 6.34 -37 6 C-30.99139451 4.94161873 -25.15372439 4.88337429 -19.0625 4.9375 C-18.09248047 4.94201172 -17.12246094 4.94652344 -16.12304688 4.95117188 C-13.7486324 4.9628685 -11.37434979 4.97925914 -9 5 C-9.33 4.34 -9.66 3.68 -10 3 C-11.32 3.33 -12.64 3.66 -14 4 C-14 2.68 -14 1.36 -14 0 C-9.02936879 -0.91297308 -4.97063121 -0.91297308 0 0 Z " fill="#E26968" transform="translate(270,30)"/>
<path d="M0 0 C6.57975358 -0.21225012 12.62458017 0.26699897 19 2 C19.33 2.33 19.66 2.66 20 3 C21.45812869 3.35344074 22.92842309 3.65711183 24.40234375 3.9375 C25.73749023 4.19660156 25.73749023 4.19660156 27.09960938 4.4609375 C28.03611328 4.63882812 28.97261719 4.81671875 29.9375 5 C31.78045393 5.35152404 33.62292902 5.70557075 35.46484375 6.0625 C36.285896 6.21847656 37.10694824 6.37445312 37.95288086 6.53515625 C40 7 40 7 42 8 C42 8.66 42 9.32 42 10 C30.74708287 9.18160603 19.8107669 6.09797244 9 3 C7.35807097 2.60825846 5.71267205 2.23042167 4.0625 1.875 C3.29035156 1.70742188 2.51820313 1.53984375 1.72265625 1.3671875 C1.15417969 1.24601563 0.58570313 1.12484375 0 1 C0 0.67 0 0.34 0 0 Z " fill="#C5C9CF" transform="translate(498,0)"/>
<path d="M0 0 C0 0.33 0 0.66 0 1 C29.205 1.495 29.205 1.495 59 2 C59 1.34 59 0.68 59 0 C59.99 0 60.98 0 62 0 C61.67 0.99 61.34 1.98 61 3 C37.57 3 14.14 3 -10 3 C-10 2.34 -10 1.68 -10 1 C-6.61981469 -0.04005702 -3.5219721 -0.08004482 0 0 Z " fill="#71393A" transform="translate(240,86)"/>
<path d="M0 0 C0.33 0 0.66 0 1 0 C1.33 4.95 1.66 9.9 2 15 C12.23 15.33 22.46 15.66 33 16 C33 14.35 33 12.7 33 11 C33.33 11 33.66 11 34 11 C34 12.98 34 14.96 34 17 C24.1 17 14.2 17 4 17 C4 18.32 4 19.64 4 21 C8.29 21 12.58 21 17 21 C17 21.33 17 21.66 17 22 C11.72 22.33 6.44 22.66 1 23 C-0.2263757 20.54724859 -0.11415314 18.9494219 -0.09765625 16.2109375 C-0.09443359 15.26992188 -0.09121094 14.32890625 -0.08789062 13.359375 C-0.07951172 12.37453125 -0.07113281 11.3896875 -0.0625 10.375 C-0.05798828 9.38242187 -0.05347656 8.38984375 -0.04882812 7.3671875 C-0.03702145 4.9113984 -0.020554 2.45572896 0 0 Z " fill="#EA9091" transform="translate(230,21)"/>
<path d="M0 0 C1.32 0 2.64 0 4 0 C4 5.94 4 11.88 4 18 C9.94 18 15.88 18 22 18 C22 19.98 22 21.96 22 24 C21.67 24 21.34 24 21 24 C21 22.35 21 20.7 21 19 C18.2079699 19.1404983 15.41650204 19.28715383 12.625 19.4375 C11.8309375 19.47681641 11.036875 19.51613281 10.21875 19.55664062 C5.97398779 19.68893404 5.97398779 19.68893404 2 21 C2 19.02 2 17.04 2 15 C1.34 14.67 0.68 14.34 0 14 C0 9.38 0 4.76 0 0 Z " fill="#D66563" transform="translate(242,50)"/>
<path d="M0 0 C0.99 0 1.98 0 3 0 C2.88065762 4.39264365 2.75635262 8.78511215 2.62768555 13.17749023 C2.58469436 14.66801252 2.54299864 16.1585728 2.50268555 17.64916992 C2.29020881 25.47408484 2.04221976 33.23152159 1 41 C0.67 41 0.34 41 0 41 C0 27.47 0 13.94 0 0 Z " fill="#BFC2C5" transform="translate(466,0)"/>
<path d="M0 0 C3.3 0 6.6 0 10 0 C10 1.65 10 3.3 10 5 C7.36 5 4.72 5 2 5 C2 9.62 2 14.24 2 19 C1.34 19 0.68 19 0 19 C0 12.73 0 6.46 0 0 Z " fill="#A13E3F" transform="translate(253,43)"/>
<path d="M0 0 C0.99 0 1.98 0 3 0 C3 0.99 3 1.98 3 3 C4.65 3.33 6.3 3.66 8 4 C8.125 6.875 8.125 6.875 8 10 C7.34 10.66 6.68 11.32 6 12 C4.02 12 2.04 12 0 12 C0 8.04 0 4.08 0 0 Z " fill="#A8A8A8" transform="translate(348,155)"/>
<path d="M0 0 C0.33 0 0.66 0 1 0 C1 1.65 1 3.3 1 5 C-2.61973402 6.31626692 -5.09567131 7 -9 7 C-9 7.99 -9 8.98 -9 10 C-11.31 10.33 -13.62 10.66 -16 11 C-16 10.34 -16 9.68 -16 9 C-14.68 8.67 -13.36 8.34 -12 8 C-11.67 6.02 -11.34 4.04 -11 2 C-9.93458984 1.90912109 -9.93458984 1.90912109 -8.84765625 1.81640625 C-7.46900391 1.69072266 -7.46900391 1.69072266 -6.0625 1.5625 C-5.14597656 1.48128906 -4.22945313 1.40007812 -3.28515625 1.31640625 C-1.03840268 1.23955024 -1.03840268 1.23955024 0 0 Z " fill="#AF1D21" transform="translate(293,67)"/>
<path d="M0 0 C1.32 0 2.64 0 4 0 C4 0.66 4 1.32 4 2 C4.99 2 5.98 2 7 2 C7 2.99 7 3.98 7 5 C6.01 5 5.02 5 4 5 C1.31232422 7.43750025 1.31232422 7.43750025 -1 10 C-1.66 9.34 -2.32 8.68 -3 8 C-5.57061311 7.35232207 -5.57061311 7.35232207 -8 7 C-8 6.01 -8 5.02 -8 4 C-7.236875 4.0825 -6.47375 4.165 -5.6875 4.25 C-4.3571875 4.12625 -4.3571875 4.12625 -3 4 C-1.9739266 2.68662604 -0.97272675 1.35335895 0 0 Z " fill="#E1E0DA" transform="translate(91,3)"/>
<path d="M0 0 C0.66 0 1.32 0 2 0 C2.33 0.99 2.66 1.98 3 3 C3.33 2.01 3.66 1.02 4 0 C4.598125 0.185625 5.19625 0.37125 5.8125 0.5625 C8.16408762 1.22093687 8.16408762 1.22093687 11 0 C10.67 2.97 10.34 5.94 10 9 C6 8 6 8 5 7 C4.67 7.66 4.34 8.32 4 9 C3.01 9 2.02 9 1 9 C0.67 6.03 0.34 3.06 0 0 Z " fill="#7B7B7B" transform="translate(205,158)"/>
<path d="M0 0 C6 0 6 0 8 1 C8.04254356 2.99954746 8.04080783 5.00041636 8 7 C7 8 7 8 4.4375 8.0625 C3.633125 8.041875 2.82875 8.02125 2 8 C2 9.32 2 10.64 2 12 C1.34 12 0.68 12 0 12 C0 8.04 0 4.08 0 0 Z " fill="#868686" transform="translate(303,155)"/>
<path d="M0 0 C3.125 0.375 3.125 0.375 6 1 C6.625 3.3125 6.625 3.3125 7 6 C6.01 7.485 6.01 7.485 5 9 C2.5 9.3125 2.5 9.3125 0 9 C-2 7 -2 7 -2.25 4.5 C-2 2 -2 2 0 0 Z " fill="#A3A3A3" transform="translate(184,158)"/>
<path d="M0 0 C1.32 0.66 2.64 1.32 4 2 C4 4.97 4 7.94 4 11 C1.36 11 -1.28 11 -4 11 C-4.1875 8.125 -4.1875 8.125 -4 5 C-3.01 4.34 -2.02 3.68 -1 3 C-0.67 2.01 -0.34 1.02 0 0 Z " fill="#19191B" transform="translate(323,115)"/>
<path d="M0 0 C2 0 4 0 6 0 C6 0.66 6 1.32 6 2 C6.66 2 7.32 2 8 2 C8 3.32 8 4.64 8 6 C3.8803623 7.29243536 0.33168317 8.26252625 -4 8 C-3.40339753 4.65902615 -2.36924875 2.45699871 0 0 Z " fill="#EA1B18" transform="translate(287,52)"/>
<path d="M0 0 C1.47973345 0.43557916 2.95874785 0.87360096 4.4375 1.3125 C5.34628906 1.58191406 6.25507812 1.85132812 7.19140625 2.12890625 C10.50175781 3.15562169 13.74882009 4.32612417 16.9921875 5.546875 C19.0256639 6.16599147 19.0256639 6.16599147 21.1328125 5.453125 C21.74898437 5.30359375 22.36515625 5.1540625 23 5 C23.66 5.66 24.32 6.32 25 7 C24.625 9.125 24.625 9.125 24 11 C17.14381674 9.07443364 10.56747868 6.7527517 4 4 C4 3.34 4 2.68 4 2 C2.68 2 1.36 2 0 2 C0 1.34 0 0.68 0 0 Z " fill="#D7D8D5" transform="translate(40,20)"/>
<path d="M0 0 C1.2065625 0.0309375 1.2065625 0.0309375 2.4375 0.0625 C2.7675 1.0525 3.0975 2.0425 3.4375 3.0625 C1.7875 3.0625 0.1375 3.0625 -1.5625 3.0625 C1.3059413 5.16482344 1.3059413 5.16482344 4.4375 6.0625 C3.5625 10.9375 3.5625 10.9375 2.4375 12.0625 C0.09805264 11.77519945 -2.2364143 11.44313221 -4.5625 11.0625 C-4.5625 10.0725 -4.5625 9.0825 -4.5625 8.0625 C-2.5825 8.7225 -0.6025 9.3825 1.4375 10.0625 C1.4375 9.0725 1.4375 8.0825 1.4375 7.0625 C-1.5325 6.5675 -1.5325 6.5675 -4.5625 6.0625 C-3.48963568 0.08511307 -3.48963568 0.08511307 0 0 Z " fill="#737373" transform="translate(175.5625,154.9375)"/>
<path d="M0 0 C0.99 0.33 1.98 0.66 3 1 C2.51391769 1.56732849 2.02783539 2.13465698 1.52702332 2.71917725 C-0.17820033 5.26616709 -0.38898355 6.47325506 -0.43237305 9.49316406 C-0.45216721 10.37377502 -0.47196136 11.25438599 -0.49235535 12.16168213 C-0.49874527 13.10348328 -0.50513519 14.04528442 -0.51171875 15.015625 C-0.52966995 15.98659119 -0.54762115 16.95755737 -0.56611633 17.95794678 C-0.62024273 21.05525385 -0.65412283 24.1524066 -0.6875 27.25 C-0.72067098 29.35158398 -0.75516043 31.4531476 -0.79101562 33.5546875 C-0.87597073 38.70301371 -0.94277108 43.85129395 -1 49 C-1.33 49 -1.66 49 -2 49 C-2.16754132 42.78881387 -2.32810887 36.57750174 -2.48217773 30.3659668 C-2.53559143 28.25231051 -2.5909203 26.13870172 -2.64819336 24.02514648 C-2.73012166 20.98952478 -2.80519135 17.95379962 -2.87890625 14.91796875 C-2.90594131 13.97100632 -2.93297638 13.02404388 -2.96083069 12.04838562 C-2.98092697 11.16769913 -3.00102325 10.28701263 -3.02172852 9.37963867 C-3.04171402 8.60464523 -3.06169952 7.82965179 -3.08229065 7.03117371 C-3 5 -3 5 -2 2 C-1.34 2 -0.68 2 0 2 C0 1.34 0 0.68 0 0 Z " fill="#F1E0E2" transform="translate(227,15)"/>
<path d="M0 0 C4.55555556 0.55555556 4.55555556 0.55555556 6 2 C6.04080783 3.99958364 6.04254356 6.00045254 6 8 C3.125 8.625 3.125 8.625 0 9 C-2 7 -2 7 -2.25 4.5 C-2 2 -2 2 0 0 Z " fill="#747474" transform="translate(315,158)"/>
<path d="M0 0 C9.24 0 18.48 0 28 0 C28 0.66 28 1.32 28 2 C18.52958787 2.78118882 9.47611697 3.16656743 0 2 C0 1.34 0 0.68 0 0 Z " fill="#FBFCF8" transform="translate(235,39)"/>
<path d="M0 0 C2.33944736 0.28730055 4.6739143 0.61936779 7 1 C6.731875 1.515625 6.46375 2.03125 6.1875 2.5625 C4.67650593 5.66401415 3.34427274 8.82262806 2 12 C1.01 12 0.02 12 -1 12 C-1.02687279 10.18757948 -1.04633715 8.37504767 -1.0625 6.5625 C-1.07410156 5.55316406 -1.08570313 4.54382812 -1.09765625 3.50390625 C-1 1 -1 1 0 0 Z " fill="#E65A55" transform="translate(258,49)"/>
<path d="M0 0 C1.66611905 -0.042721 3.33382885 -0.04063832 5 0 C6 1 6 1 6.09765625 2.84765625 C6.06510417 4.8984375 6.03255208 6.94921875 6 9 C4.02 9 2.04 9 0 9 C-0.84454356 5.62182575 -1.10844919 3.32534757 0 0 Z " fill="#848484" transform="translate(219,158)"/>
<path d="M0 0 C0.33 0 0.66 0 1 0 C1.33 2.64 1.66 5.28 2 8 C2.33 8 2.66 8 3 8 C3 13.61 3 19.22 3 25 C2.01 24.67 1.02 24.34 0 24 C0 16.08 0 8.16 0 0 Z " fill="#DDDFE1" transform="translate(464,56)"/>
<path d="M0 0 C0.268125 0.639375 0.53625 1.27875 0.8125 1.9375 C1.88667752 4.33131686 1.88667752 4.33131686 5 5 C5 11.6 5 18.2 5 25 C4.67 25 4.34 25 4 25 C4 18.73 4 12.46 4 6 C2.02 6 0.04 6 -2 6 C-2 7.98 -2 9.96 -2 12 C-3.32 11.67 -4.64 11.34 -6 11 C-4.34703566 6.90694544 -2.86453858 3.41016497 0 0 Z " fill="#CA3E3F" transform="translate(265,50)"/>
<path d="M0 0 C1.66611905 -0.042721 3.33382885 -0.04063832 5 0 C6 1 6 1 6.09765625 2.84765625 C6.06510417 4.8984375 6.03255208 6.94921875 6 9 C4.02 9 2.04 9 0 9 C-0.33 7.68 -0.66 6.36 -1 5 C0.32 4.67 1.64 4.34 3 4 C3 3.34 3 2.68 3 2 C1.68 2.33 0.36 2.66 -1 3 C-0.67 2.01 -0.34 1.02 0 0 Z " fill="#747474" transform="translate(269,158)"/>
<path d="M0 0 C2.625 0.375 2.625 0.375 5 1 C5.33 2.32 5.66 3.64 6 5 C4.35 5 2.7 5 1 5 C1 5.66 1 6.32 1 7 C2.32 7.33 3.64 7.66 5 8 C2.625 8.625 2.625 8.625 0 9 C-2 7 -2 7 -2.25 4.5 C-2 2 -2 2 0 0 Z " fill="#747474" transform="translate(387,158)"/>
<path d="M0 0 C0.33 1.32 0.66 2.64 1 4 C1.99 4 2.98 4 4 4 C3.67 7.3 3.34 10.6 3 14 C1.68 14 0.36 14 -1 14 C-1.02694851 12.04174127 -1.04637218 10.08337774 -1.0625 8.125 C-1.07410156 7.03445312 -1.08570313 5.94390625 -1.09765625 4.8203125 C-1 2 -1 2 0 0 Z " fill="#F0DDDA" transform="translate(278,60)"/>
<path d="M0 0 C0 0.66 0 1.32 0 2 C-2.97 1.505 -2.97 1.505 -6 1 C-6.66 2.32 -7.32 3.64 -8 5 C-7.34 5.66 -6.68 6.32 -6 7 C-8.3125 7.625 -8.3125 7.625 -11 8 C-11.99 7.34 -12.98 6.68 -14 6 C-13.67 5.01 -13.34 4.02 -13 3 C-11.35 2.67 -9.7 2.34 -8 2 C-8.33 1.01 -8.66 0.02 -9 -1 C-5.79937313 -2.60031344 -3.27728194 -1.03173691 0 0 Z " fill="#DFE2E1" transform="translate(72,28)"/>
<path d="M0 0 C2.4375 1.0625 2.4375 1.0625 4 2 C3.01 2.495 3.01 2.495 2 3 C1.01 2.67 0.02 2.34 -1 2 C-0.67 3.32 -0.34 4.64 0 6 C-5.49152542 5.38983051 -5.49152542 5.38983051 -7.875 3.5625 C-9 2 -9 2 -9 0 C-5.88094953 -1.55952523 -3.35318513 -0.6359489 0 0 Z " fill="#CECFD3" transform="translate(124,1)"/>
<path d="M0 0 C0.99 0 1.98 0 3 0 C3.33 0.99 3.66 1.98 4 3 C4.66 2.01 5.32 1.02 6 0 C6.66 0 7.32 0 8 0 C7.25749403 4.08378283 6.17076699 8.01939223 5 12 C3.68 12 2.36 12 1 12 C1 11.34 1 10.68 1 10 C1.66 10 2.32 10 3 10 C2.01 6.7 1.02 3.4 0 0 Z " fill="#7D7D7D" transform="translate(287,158)"/>
<path d="M0 0 C0 0.66 0 1.32 0 2 C-1.32 1.67 -2.64 1.34 -4 1 C-4 1.66 -4 2.32 -4 3 C-2.68 3.33 -1.36 3.66 0 4 C-0.33 5.32 -0.66 6.64 -1 8 C-3.97 7.505 -3.97 7.505 -7 7 C-7 4.69 -7 2.38 -7 0 C-4.3333581 -1.33332095 -2.83319697 -0.67102033 0 0 Z " fill="#7E7E7E" transform="translate(340,159)"/>
<path d="M0 0 C2.625 0.375 2.625 0.375 5 1 C5.33 2.32 5.66 3.64 6 5 C4.02 5 2.04 5 0 5 C0 5.66 0 6.32 0 7 C1.65 6.67 3.3 6.34 5 6 C4.67 6.99 4.34 7.98 4 9 C2.35 8.67 0.7 8.34 -1 8 C-1.625 5.125 -1.625 5.125 -2 2 C-1.34 1.34 -0.68 0.68 0 0 Z " fill="#7F7F7F" transform="translate(236,158)"/>
<path d="M0 0 C0.05428973 2.22889496 0.09292338 4.45817471 0.125 6.6875 C0.14820313 7.92886719 0.17140625 9.17023438 0.1953125 10.44921875 C0.01032021 13.81237857 -0.54232105 15.9985587 -2 19 C-2.33 19 -2.66 19 -3 19 C-3 13.06 -3 7.12 -3 1 C-1 0 -1 0 0 0 Z " fill="#F9FAFA" transform="translate(341,106)"/>
<path d="M0 0 C2.125 0.375 2.125 0.375 4 1 C4.33 2.32 4.66 3.64 5 5 C3.35 5 1.7 5 0 5 C0 5.66 0 6.32 0 7 C1.65 6.67 3.3 6.34 5 6 C4.67 6.99 4.34 7.98 4 9 C1.03 8.505 1.03 8.505 -2 8 C-2.125 5.125 -2.125 5.125 -2 2 C-1.34 1.34 -0.68 0.68 0 0 Z " fill="#7C7C7C" transform="translate(158,158)"/>
<path d="M0 0 C1.51400391 0.01740234 1.51400391 0.01740234 3.05859375 0.03515625 C4.07050781 0.04417969 5.08242188 0.05320313 6.125 0.0625 C7.29869141 0.07990234 7.29869141 0.07990234 8.49609375 0.09765625 C8.49609375 0.75765625 8.49609375 1.41765625 8.49609375 2.09765625 C5.19609375 2.09765625 1.89609375 2.09765625 -1.50390625 2.09765625 C-1.50390625 4.40765625 -1.50390625 6.71765625 -1.50390625 9.09765625 C-3.15390625 9.09765625 -4.80390625 9.09765625 -6.50390625 9.09765625 C-6.83390625 8.43765625 -7.16390625 7.77765625 -7.50390625 7.09765625 C-6.18390625 7.09765625 -4.86390625 7.09765625 -3.50390625 7.09765625 C-3.52453125 6.12828125 -3.54515625 5.15890625 -3.56640625 4.16015625 C-3.48427841 0.13589229 -3.48427841 0.13589229 0 0 Z " fill="#AC595C" transform="translate(283.50390625,41.90234375)"/>
<path d="M0 0 C2.97 0.495 2.97 0.495 6 1 C6 1.66 6 2.32 6 3 C4.35 2.67 2.7 2.34 1 2 C1 2.66 1 3.32 1 4 C2.65 4.33 4.3 4.66 6 5 C6 5.99 6 6.98 6 8 C4.02 8.33 2.04 8.66 0 9 C0 8.01 0 7.02 0 6 C-0.33 5.67 -0.66 5.34 -1 5 C-0.71395102 3.32457024 -0.38218767 1.65614657 0 0 Z " fill="#757575" transform="translate(325,158)"/>
<path d="M0 0 C0.33 0 0.66 0 1 0 C1.36717663 7.4659249 1.36717663 7.4659249 -0.375 10 C-2 11 -2 11 -4 11 C-4.33 11.99 -4.66 12.98 -5 14 C-5.66 14 -6.32 14 -7 14 C-6.43768609 10.06380262 -5.38314183 7.20807554 -3 4 C-2.01 4 -1.02 4 0 4 C0 2.68 0 1.36 0 0 Z " fill="#EB4E4E" transform="translate(249,69)"/>
<path d="M0 0 C0.99 0.66 1.98 1.32 3 2 C3 2.99 3 3.98 3 5 C1.68 5.33 0.36 5.66 -1 6 C-1 7.98 -1 9.96 -1 12 C-1.99 12 -2.98 12 -4 12 C-4.33 10.02 -4.66 8.04 -5 6 C-4.01 5.67 -3.02 5.34 -2 5 C-2 4.01 -2 3.02 -2 2 C-1.34 2 -0.68 2 0 2 C0 1.34 0 0.68 0 0 Z " fill="#E11C1D" transform="translate(275,49)"/>
<path d="M0 0 C3.63 0 7.26 0 11 0 C11 1.32 11 2.64 11 4 C7.7 4 4.4 4 1 4 C0.67 2.68 0.34 1.36 0 0 Z " fill="#A03737" transform="translate(236,43)"/>
<path d="M0 0 C6.55925943 0.38979206 11.94526627 1.42113193 18 4 C17.67 4.66 17.34 5.32 17 6 C14.54093963 5.52434234 12.08279007 5.04463948 9.625 4.5625 C8.92632812 4.42779297 8.22765625 4.29308594 7.5078125 4.15429688 C2.2265625 3.11328125 2.2265625 3.11328125 0 2 C0 1.34 0 0.68 0 0 Z " fill="#D7DBDE" transform="translate(414,9)"/>
<path d="M0 0 C2.97 0 5.94 0 9 0 C8.34 2.64 7.68 5.28 7 8 C4.69 7.34 2.38 6.68 0 6 C0.33 5.01 0.66 4.02 1 3 C2.32 3 3.64 3 5 3 C2.525 2.01 2.525 2.01 0 1 C0 0.67 0 0.34 0 0 Z " fill="#E2E4E8" transform="translate(122,0)"/>
<path d="M0 0 C1.99954746 -0.04254356 4.00041636 -0.04080783 6 0 C7 1 7 1 7.09765625 2.84765625 C7.06510417 4.8984375 7.03255208 6.94921875 7 9 C6.34 9 5.68 9 5 9 C5 6.69 5 4.38 5 2 C4.01 2.495 4.01 2.495 3 3 C2.34227572 6.02934491 2.34227572 6.02934491 2 9 C1.34 9 0.68 9 0 9 C0 6.03 0 3.06 0 0 Z " fill="#737373" transform="translate(146,158)"/>
<path d="M0 0 C0.99 0 1.98 0 3 0 C3.09688221 5.44693314 3.12862175 10.63904667 2 16 C1.34 16 0.68 16 0 16 C0 10.72 0 5.44 0 0 Z " fill="#FAF8F5" transform="translate(277,32)"/>
<path d="M0 0 C0.66 0 1.32 0 2 0 C2 1.65 2 3.3 2 5 C-3.29230769 8.07692308 -3.29230769 8.07692308 -6.875 7.6875 C-7.57625 7.460625 -8.2775 7.23375 -9 7 C-9 6.34 -9 5.68 -9 5 C-9.99 5 -10.98 5 -12 5 C-12 4.34 -12 3.68 -12 3 C-10.906875 3.185625 -9.81375 3.37125 -8.6875 3.5625 C-5.06375867 4.2578068 -5.06375867 4.2578068 -2 3 C-1.34 3.33 -0.68 3.66 0 4 C0 2.68 0 1.36 0 0 Z " fill="#CFD3D6" transform="translate(129,4)"/>
<path d="M0 0 C1.99954746 -0.04254356 4.00041636 -0.04080783 6 0 C7 1 7 1 7.09765625 2.84765625 C7.06510417 4.8984375 7.03255208 6.94921875 7 9 C6.34 9 5.68 9 5 9 C5 6.69 5 4.38 5 2 C4.01 2.495 4.01 2.495 3 3 C2.34227572 6.02934491 2.34227572 6.02934491 2 9 C1.34 9 0.68 9 0 9 C0 6.03 0 3.06 0 0 Z " fill="#717171" transform="translate(278,158)"/>
<path d="M0 0 C0.33 0.66 0.66 1.32 1 2 C1.99 2 2.98 2 4 2 C4.33 5.3 4.66 8.6 5 12 C0.79842703 9.02388581 0.79842703 9.02388581 -1 7 C-1.4375 3.75 -1.4375 3.75 -1 1 C-0.67 0.67 -0.34 0.34 0 0 Z " fill="#E4D9DC" transform="translate(300,8)"/>
<path d="M0 0 C2.0625 0.4375 2.0625 0.4375 4 1 C4 2.98 4 4.96 4 7 C2.125 7.625 2.125 7.625 0 8 C-0.66 7.34 -1.32 6.68 -2 6 C-1.44444444 1.44444444 -1.44444444 1.44444444 0 0 Z " fill="#E5E5E5" transform="translate(137,157)"/>
<path d="M0 0 C0.99 0 1.98 0 3 0 C4.17571451 3.67410785 4.07366746 7.16929183 4 11 C2.68 10.67 1.36 10.34 0 10 C-1.125 2.25 -1.125 2.25 0 0 Z " fill="#767676" transform="translate(199,156)"/>
<path d="M0 0 C1.9375 0.6875 1.9375 0.6875 2.9375 2.6875 C1.6175 2.6875 0.2975 2.6875 -1.0625 2.6875 C0.2575 3.3475 1.5775 4.0075 2.9375 4.6875 C2.6075 6.0075 2.2775 7.3275 1.9375 8.6875 C0.2875 8.3575 -1.3625 8.0275 -3.0625 7.6875 C-2.4025 7.0275 -1.7425 6.3675 -1.0625 5.6875 C-2.0525 5.3575 -3.0425 5.0275 -4.0625 4.6875 C-4.0625 3.3675 -4.0625 2.0475 -4.0625 0.6875 C-2.0625 -0.3125 -2.0625 -0.3125 0 0 Z " fill="#707071" transform="translate(399.0625,158.3125)"/>
<path d="M0 0 C0.66 0 1.32 0 2 0 C1.67 3.96 1.34 7.92 1 12 C0.01 12 -0.98 12 -2 12 C-2.33 9.03 -2.66 6.06 -3 3 C-2.34 3 -1.68 3 -1 3 C-0.67 2.01 -0.34 1.02 0 0 Z " fill="#7E7E7E" transform="translate(195,155)"/>
<path d="M0 0 C2.31 0.33 4.62 0.66 7 1 C7 1.66 7 2.32 7 3 C7.66 3 8.32 3 9 3 C9 3.66 9 4.32 9 5 C5.625 5.625 5.625 5.625 2 6 C1.34 5.34 0.68 4.68 0 4 C0 2.68 0 1.36 0 0 Z " fill="#DDE0E3" transform="translate(489,49)"/>
<path d="M0 0 C3.63 0 7.26 0 11 0 C10.01 0.495 10.01 0.495 9 1 C9 1.66 9 2.32 9 3 C5.37 3.66 1.74 4.32 -2 5 C-2 4.01 -2 3.02 -2 2 C-1.34 2 -0.68 2 0 2 C0 1.34 0 0.68 0 0 Z " fill="#C65553" transform="translate(231,83)"/>
<path d="M0 0 C-2 3 -2 3 -3.875 3.4765625 C-4.926875 3.55003906 -4.926875 3.55003906 -6 3.625 C-9.11438544 3.86279979 -9.11438544 3.86279979 -12 5 C-12 3.35 -12 1.7 -12 0 C-10.37585622 -0.19477739 -8.75063577 -0.38059458 -7.125 -0.5625 C-6.22007812 -0.66691406 -5.31515625 -0.77132812 -4.3828125 -0.87890625 C-2 -1 -2 -1 0 0 Z " fill="#9A1A21" transform="translate(294,44)"/>
<path d="M0 0 C3.96 0 7.92 0 12 0 C11.67 1.32 11.34 2.64 11 4 C10.34 3.67 9.68 3.34 9 3 C7.45976004 2.93049459 5.91665012 2.91547643 4.375 2.9375 C3.55773437 2.94652344 2.74046875 2.95554687 1.8984375 2.96484375 C1.27195313 2.97644531 0.64546875 2.98804687 0 3 C0 2.01 0 1.02 0 0 Z " fill="#942124" transform="translate(251,69)"/>
<path d="M0 0 C0.66 0 1.32 0 2 0 C2 3.96 2 7.92 2 12 C1.01 12 0.02 12 -1 12 C-1.02687279 10.18757948 -1.04633715 8.37504767 -1.0625 6.5625 C-1.07410156 5.55316406 -1.08570313 4.54382813 -1.09765625 3.50390625 C-1 1 -1 1 0 0 Z " fill="#757474" transform="translate(381,155)"/>
<path d="M0 0 C0.99 0.33 1.98 0.66 3 1 C3 4.63 3 8.26 3 12 C2.01 12 1.02 12 0 12 C0 8.04 0 4.08 0 0 Z " fill="#908F90" transform="translate(369,155)"/>
<path d="M0 0 C1.67542976 0.28604898 3.34385343 0.61781233 5 1 C5.33 1.99 5.66 2.98 6 4 C5.01 4.495 5.01 4.495 4 5 C3.68758545 7.71446979 3.48663408 10.33909361 3.375 13.0625 C3.33632813 13.82111328 3.29765625 14.57972656 3.2578125 15.36132812 C3.16326438 17.24047195 3.08053244 19.12020336 3 21 C2.67 21 2.34 21 2 21 C1.95101563 19.80761719 1.90203125 18.61523438 1.8515625 17.38671875 C1.77652396 15.82028932 1.7009766 14.25388421 1.625 12.6875 C1.57859375 11.50897461 1.57859375 11.50897461 1.53125 10.30664062 C1.47324219 9.1706543 1.47324219 9.1706543 1.4140625 8.01171875 C1.3826416 7.31522217 1.3512207 6.61872559 1.31884766 5.90112305 C1.07881747 3.67467261 1.07881747 3.67467261 -1 1 C-0.67 0.67 -0.34 0.34 0 0 Z " fill="#D7D8DA" transform="translate(450,98)"/>
<path d="M0 0 C1.3921875 0.3403125 1.3921875 0.3403125 2.8125 0.6875 C2.4825 2.3375 2.1525 3.9875 1.8125 5.6875 C-0.5306213 5.43188677 -2.86593403 5.09479228 -5.1875 4.6875 C-5.5175 4.0275 -5.8475 3.3675 -6.1875 2.6875 C-4.14987265 -0.14253799 -3.59070275 -0.35202968 0 0 Z " fill="#EDEFEF" transform="translate(69.1875,29.3125)"/>
<path d="M0 0 C3.63 0 7.26 0 11 0 C10.67 0.99 10.34 1.98 10 3 C6.7 3.33 3.4 3.66 0 4 C0 2.68 0 1.36 0 0 Z " fill="#8F1E25" transform="translate(282,69)"/>
<path d="M0 0 C0.33 0.99 0.66 1.98 1 3 C1.61875 2.814375 2.2375 2.62875 2.875 2.4375 C5 2 5 2 7 3 C7 4.98 7 6.96 7 9 C6.01 9 5.02 9 4 9 C4 7.68 4 6.36 4 5 C3.34 5 2.68 5 2 5 C1.34 6.32 0.68 7.64 0 9 C0 6.03 0 3.06 0 0 Z " fill="#6A6A6A" transform="translate(349,156)"/>
<path d="M0 0 C0.99 0.33 1.98 0.66 3 1 C3.24179464 5.11050895 2.39344153 8.14754401 1 12 C0.65023242 13.32911682 0.30903983 14.66082739 0 16 C-0.33 16 -0.66 16 -1 16 C-0.67 10.72 -0.34 5.44 0 0 Z " fill="#D5D9DC" transform="translate(343,0)"/>
<path d="M0 0 C4.29 0.99 8.58 1.98 13 3 C12.01 3.495 12.01 3.495 11 4 C10.67 4.99 10.34 5.98 10 7 C9.34 6.67 8.68 6.34 8 6 C8 5.34 8 4.68 8 4 C5.36 3.67 2.72 3.34 0 3 C0 2.01 0 1.02 0 0 Z " fill="#DDE1E3" transform="translate(496,60)"/>
<path d="M0 0 C0.66 0 1.32 0 2 0 C2 3.3 2 6.6 2 10 C0.02 10.33 -1.96 10.66 -4 11 C-4 9.02 -4 7.04 -4 5 C-1 6 -1 6 0 8 C0 5.36 0 2.72 0 0 Z " fill="#D22B27" transform="translate(296,32)"/>
<path d="M0 0 C2.33944736 0.28730055 4.6739143 0.61936779 7 1 C7 2.65 7 4.3 7 6 C6.67 4.68 6.34 3.36 6 2 C4.35 2.33 2.7 2.66 1 3 C0.67 4.65 0.34 6.3 0 8 C-2.31 8 -4.62 8 -7 8 C-7 7.67 -7 7.34 -7 7 C-5.02 7 -3.04 7 -1 7 C-1.020625 6.030625 -1.04125 5.06125 -1.0625 4.0625 C-1 1 -1 1 0 0 Z " fill="#E37E7D" transform="translate(263,29)"/>
<path d="M0 0 C4.19469571 0.59924224 8.00999834 1.57499941 12 3 C11.67 3.66 11.34 4.32 11 5 C7.7 4.34 4.4 3.68 1 3 C0.67 2.01 0.34 1.02 0 0 Z " fill="#DDDEDD" transform="translate(26,20)"/>
<path d="M0 0 C7.42857143 -0.14285714 7.42857143 -0.14285714 11 1 C11 1.66 11 2.32 11 3 C7.37 3 3.74 3 0 3 C0 2.01 0 1.02 0 0 Z " fill="#FEF8F8" transform="translate(250,64)"/>
<path d="M0 0 C3.3 0 6.6 0 10 0 C10 3.96 10 7.92 10 12 C9.67 12 9.34 12 9 12 C9 8.7 9 5.4 9 2 C8.01 2.33 7.02 2.66 6 3 C2.8125 2.0625 2.8125 2.0625 0 1 C0 0.67 0 0.34 0 0 Z " fill="#DA1C1C" transform="translate(288,20)"/>
<path d="M0 0 C0.99 0.33 1.98 0.66 3 1 C2.45276317 4.37462715 1.9451 6.08235 0 9 C-0.66 9 -1.32 9 -2 9 C-2.25 3.375 -2.25 3.375 0 0 Z " fill="#E3E6E7" transform="translate(101,6)"/>
<path d="M0 0 C0.66 0 1.32 0 2 0 C2 0.66 2 1.32 2 2 C3.65 2.33 5.3 2.66 7 3 C3.00439392 5.83022097 -0.42737323 4.76210446 -5 4 C-5 3.34 -5 2.68 -5 2 C-3.35 2 -1.7 2 0 2 C0 1.34 0 0.68 0 0 Z " fill="#D3D3D3" transform="translate(393,161)"/>
<path d="M0 0 C0.66 0 1.32 0 2 0 C3.17571451 3.67410785 3.07366746 7.16929183 3 11 C2.01 11 1.02 11 0 11 C-0.19491452 9.54263913 -0.38069358 8.08405407 -0.5625 6.625 C-0.66691406 5.81289062 -0.77132813 5.00078125 -0.87890625 4.1640625 C-1 2 -1 2 0 0 Z " fill="#706E6F" transform="translate(375,156)"/>
<path d="M0 0 C0.33 0.99 0.66 1.98 1 3 C-2.3 6.3 -5.6 9.6 -9 13 C-9.66 12.67 -10.32 12.34 -11 12 C-10.54109375 11.55269531 -10.0821875 11.10539062 -9.609375 10.64453125 C-6.16447701 7.25029352 -2.92744915 3.86423288 0 0 Z " fill="#D3D4D4" transform="translate(171,107)"/>
<path d="M0 0 C0.99 0 1.98 0 3 0 C2.67 0.99 2.34 1.98 2 3 C-4.93 3 -11.86 3 -19 3 C-19 2.67 -19 2.34 -19 2 C-12.73 2 -6.46 2 0 2 C0 1.34 0 0.68 0 0 Z " fill="#6C4143" transform="translate(299,86)"/>
<path d="M0 0 C0.99 0 1.98 0 3 0 C3 1.98 3 3.96 3 6 C6.96 6 10.92 6 15 6 C15 6.33 15 6.66 15 7 C12.87527424 7.05386629 10.75016348 7.09273071 8.625 7.125 C6.84996094 7.15980469 6.84996094 7.15980469 5.0390625 7.1953125 C2 7 2 7 0 5 C-0.125 2.375 -0.125 2.375 0 0 Z " fill="#FCCDC6" transform="translate(277,57)"/>
<path d="M0 0 C0 4.95 0 9.9 0 15 C-0.33 15 -0.66 15 -1 15 C-1 11.37 -1 7.74 -1 4 C-1.99 4.33 -2.98 4.66 -4 5 C-4.33 3.68 -4.66 2.36 -5 1 C-2 0 -2 0 0 0 Z " fill="#D12F32" transform="translate(275,34)"/>
<path d="M0 0 C0.625 1.875 0.625 1.875 1 4 C0.34 4.66 -0.32 5.32 -1 6 C-4.625 5.625 -4.625 5.625 -8 5 C-8 4.01 -8 3.02 -8 2 C-6.02 2.66 -4.04 3.32 -2 4 C-2 3.34 -2 2.68 -2 2 C-1.34 2 -0.68 2 0 2 C0 1.34 0 0.68 0 0 Z " fill="#7E7E7E" transform="translate(179,161)"/>
<path d="M0 0 C0.82638376 2.89234315 1 4.88742431 1 8 C-0.65 8 -2.3 8 -4 8 C-4 5.69 -4 3.38 -4 1 C-2.02 1.99 -2.02 1.99 0 3 C0 2.01 0 1.02 0 0 Z " fill="#E6E8E7" transform="translate(421,128)"/>
<path d="M0 0 C2.31 0.33 4.62 0.66 7 1 C7.33 2.32 7.66 3.64 8 5 C7.01 5.495 7.01 5.495 6 6 C5.67 5.34 5.34 4.68 5 4 C2.47266765 3.34444881 2.47266765 3.34444881 0 3 C0 2.01 0 1.02 0 0 Z " fill="#CDCCC8" transform="translate(83,7)"/>
<path d="M0 0 C2.64 0.33 5.28 0.66 8 1 C8 1.99 8 2.98 8 4 C2.25 4.125 2.25 4.125 0 3 C0 2.01 0 1.02 0 0 Z " fill="#E1E4E9" transform="translate(504,2)"/>
<path d="M0 0 C0.33 0.99 0.66 1.98 1 3 C-1.97 5.97 -4.94 8.94 -8 12 C-8.66 11.67 -9.32 11.34 -10 11 C-6.7 7.37 -3.4 3.74 0 0 Z " fill="#2B2B2B" transform="translate(143,126)"/>
<path d="M0 0 C0.33 0 0.66 0 1 0 C1 1.98 1 3.96 1 6 C-0.32 6.33 -1.64 6.66 -3 7 C-3.33 5.68 -3.66 4.36 -4 3 C-2.68 2.67 -1.36 2.34 0 2 C0 1.34 0 0.68 0 0 Z " fill="#8A8A8A" transform="translate(272,160)"/>
<path d="M0 0 C0.33 1.32 0.66 2.64 1 4 C1.99 4 2.98 4 4 4 C3.67 5.32 3.34 6.64 3 8 C2.34 8 1.68 8 1 8 C1 9.65 1 11.3 1 13 C0.67 13 0.34 13 0 13 C0 8.71 0 4.42 0 0 Z " fill="#FBFAF9" transform="translate(278,60)"/>
<path d="M0 0 C3.55780196 0.60990891 6.6828589 1.5783681 10 3 C9.67 3.66 9.34 4.32 9 5 C4.545 4.01 4.545 4.01 0 3 C0 2.01 0 1.02 0 0 Z " fill="#D8DCDF" transform="translate(433,13)"/>
<path d="M0 0 C2.31 0.33 4.62 0.66 7 1 C7 2.32 7 3.64 7 5 C6.01 5 5.02 5 4 5 C3.67 5.66 3.34 6.32 3 7 C3 6.01 3 5.02 3 4 C2.01 3.34 1.02 2.68 0 2 C0 1.34 0 0.68 0 0 Z " fill="#E4E7EB" transform="translate(533,9)"/>
<path d="M0 0 C3.96 0 7.92 0 12 0 C12 0.33 12 0.66 12 1 C9.69 1.33 7.38 1.66 5 2 C4.67 3.32 4.34 4.64 4 6 C2.62437146 4.71034824 1.29233607 3.37310707 0 2 C0 1.34 0 0.68 0 0 Z " fill="#2D2D2D" transform="translate(128,104)"/>
<path d="M0 0 C4.455 0.99 4.455 0.99 9 2 C7.68 3.32 6.36 4.64 5 6 C3.35 4.02 1.7 2.04 0 0 Z " fill="#D9DDE0" transform="translate(445,17)"/>
<path d="M0 0 C0.99 0 1.98 0 3 0 C3 3.96 3 7.92 3 12 C2.34 12 1.68 12 1 12 C1.33 9.03 1.66 6.06 2 3 C1.34 3 0.68 3 0 3 C0 2.01 0 1.02 0 0 Z " fill="#636363" transform="translate(262,155)"/>
<path d="M0 0 C1.2065625 0.0309375 1.2065625 0.0309375 2.4375 0.0625 C2.4375 1.3825 2.4375 2.7025 2.4375 4.0625 C0.7875 4.0625 -0.8625 4.0625 -2.5625 4.0625 C-2.8925 3.0725 -3.2225 2.0825 -3.5625 1.0625 C-2.5625 0.0625 -2.5625 0.0625 0 0 Z " fill="#E1E2E4" transform="translate(533.5625,69.9375)"/>
<path d="M0 0 C0.99 0 1.98 0 3 0 C3 1.98 3 3.96 3 6 C2.34 6 1.68 6 1 6 C0.67 6.99 0.34 7.98 0 9 C0 6.03 0 3.06 0 0 Z " fill="#FFF0ED" transform="translate(277,32)"/>
<path d="M0 0 C0.66 0 1.32 0 2 0 C2.66 2.97 3.32 5.94 4 9 C3.01 9 2.02 9 1 9 C0.67 6.03 0.34 3.06 0 0 Z " fill="#737373" transform="translate(205,158)"/>
<path d="M0 0 C2.475 0.495 2.475 0.495 5 1 C5.33 2.32 5.66 3.64 6 5 C4.35 4.67 2.7 4.34 1 4 C0.67 2.68 0.34 1.36 0 0 Z " fill="#909090" transform="translate(387,158)"/>
<path d="M0 0 C0.33 0 0.66 0 1 0 C1.36717663 7.4659249 1.36717663 7.4659249 -0.375 10 C-2 11 -2 11 -4 11 C-3.71125 10.484375 -3.4225 9.96875 -3.125 9.4375 C-1.71219973 6.37643275 -0.8751483 3.25055082 0 0 Z " fill="#DB3B3B" transform="translate(249,69)"/>
<path d="M0 0 C2.64 0 5.28 0 8 0 C8 0.66 8 1.32 8 2 C5.36 2.33 2.72 2.66 0 3 C0 2.01 0 1.02 0 0 Z " fill="#992B2D" transform="translate(254,44)"/>
<path d="M0 0 C2.9375 0.375 2.9375 0.375 6 1 C6.33 1.66 6.66 2.32 7 3 C4.03 3 1.06 3 -2 3 C-1.34 2.01 -0.68 1.02 0 0 Z " fill="#E2E8E4" transform="translate(291,10)"/>
<path d="M0 0 C0.99 0 1.98 0 3 0 C3 0.66 3 1.32 3 2 C3.99 2 4.98 2 6 2 C6 2.99 6 3.98 6 5 C3.03 4.505 3.03 4.505 0 4 C0 2.68 0 1.36 0 0 Z " fill="#D1D0CA" transform="translate(92,3)"/>
<path d="M0 0 C0.99 0.33 1.98 0.66 3 1 C3 1.33 3 1.66 3 2 C3.32380126 3.33568021 3.65657551 4.66923011 4 6 C2.125 5.75 2.125 5.75 0 5 C-1.25 2.9375 -1.25 2.9375 -2 1 C-1.34 0.67 -0.68 0.34 0 0 Z " fill="#C0C1C5" transform="translate(117,0)"/>
<path d="M0 0 C2.64 0 5.28 0 8 0 C8 0.99 8 1.98 8 3 C5.36 2.67 2.72 2.34 0 2 C0 1.34 0 0.68 0 0 Z " fill="#D7DAE0" transform="translate(62,0)"/>
<path d="M0 0 C1.32 0.33 2.64 0.66 4 1 C3.34 3.31 2.68 5.62 2 8 C1.34 8 0.68 8 0 8 C0 5.36 0 2.72 0 0 Z " fill="#676767" transform="translate(228,159)"/>
<path d="M0 0 C-4.95 1.485 -4.95 1.485 -10 3 C-9.67 1.68 -9.34 0.36 -9 -1 C-4.80410573 -2.16552619 -4.17908064 -2.08954032 0 0 Z " fill="#EAEAE8" transform="translate(42,25)"/>
<path d="M0 0 C6.75 0.75 6.75 0.75 9 3 C6 4 6 4 3.375 3.1875 C1 2 1 2 0 0 Z " fill="#E0E4E7" transform="translate(27,12)"/>
<path d="M0 0 C0.33 0.66 0.66 1.32 1 2 C1.99 2 2.98 2 4 2 C3.67 3.32 3.34 4.64 3 6 C1.68 5.67 0.36 5.34 -1 5 C-0.67 3.35 -0.34 1.7 0 0 Z " fill="#DDE6EE" transform="translate(300,8)"/>
<path d="M0 0 C0.66 0 1.32 0 2 0 C2.185625 0.9590625 2.185625 0.9590625 2.375 1.9375 C2.684375 2.9584375 2.684375 2.9584375 3 4 C3.66 4.33 4.32 4.66 5 5 C5 5.66 5 6.32 5 7 C1.125 6.125 1.125 6.125 0 5 C-0.04063832 3.33382885 -0.042721 1.66611905 0 0 Z " fill="#797979" transform="translate(182,160)"/>
<path d="M0 0 C0.99 0 1.98 0 3 0 C3 1.65 3 3.3 3 5 C1.68 4.67 0.36 4.34 -1 4 C-0.67 2.68 -0.34 1.36 0 0 Z " fill="#DFDFDF" transform="translate(316,160)"/>
<path d="M0 0 C0.66 0 1.32 0 2 0 C2 1.98 2 3.96 2 6 C1.01 6.33 0.02 6.66 -1 7 C-1.04254356 5.00045254 -1.04080783 2.99958364 -1 1 C-0.67 0.67 -0.34 0.34 0 0 Z " fill="#E6E6E6" transform="translate(281,160)"/>
<path d="M0 0 C1.32 0 2.64 0 4 0 C4 1.65 4 3.3 4 5 C3.01 5 2.02 5 1 5 C0.67 3.35 0.34 1.7 0 0 Z " fill="#DADEDD" transform="translate(490,57)"/>
<path d="M0 0 C0.66 0 1.32 0 2 0 C2 0.66 2 1.32 2 2 C3.65 2 5.3 2 7 2 C7 2.99 7 3.98 7 5 C4.69 4.34 2.38 3.68 0 3 C0 2.01 0 1.02 0 0 Z " fill="#DADAD6" transform="translate(49,28)"/>
<path d="M0 0 C0.33 0.66 0.66 1.32 1 2 C-1.64 2.33 -4.28 2.66 -7 3 C-7 2.01 -7 1.02 -7 0 C-3.98968256 -0.93423645 -3.13349732 -1.04449911 0 0 Z " fill="#D4DBE1" transform="translate(525,1)"/>
<path d="M0 0 C6.75 1.75 6.75 1.75 9 4 C7.68 4.33 6.36 4.66 5 5 C4.67 4.34 4.34 3.68 4 3 C1.97536745 2.34786708 1.97536745 2.34786708 0 2 C0 1.34 0 0.68 0 0 Z " fill="#E5E5E5" transform="translate(326,160)"/>
<path d="M0 0 C0.66 0 1.32 0 2 0 C1.67 2.97 1.34 5.94 1 9 C0.67 9 0.34 9 0 9 C0 7.35 0 5.7 0 4 C-0.66 3.67 -1.32 3.34 -2 3 C-1.34 2.01 -0.68 1.02 0 0 Z " fill="#939393" transform="translate(214,158)"/>
<path d="M0 0 C0.99 0 1.98 0 3 0 C2.34 3.3 1.68 6.6 1 10 C0.67 10 0.34 10 0 10 C-1.125 2.25 -1.125 2.25 0 0 Z " fill="#8C8C8C" transform="translate(199,156)"/>
<path d="M0 0 C0 0.66 0 1.32 0 2 C-3.465 3.485 -3.465 3.485 -7 5 C-6.625 3.0625 -6.625 3.0625 -6 1 C-4 0 -4 0 0 0 Z " fill="#7A7A7A" transform="translate(140,155)"/>
<path d="M0 0 C0.66 0 1.32 0 2 0 C2 0.99 2 1.98 2 3 C1.34 3 0.68 3 0 3 C0 5.97 0 8.94 0 12 C-0.33 12 -0.66 12 -1 12 C-1.02687279 10.18757948 -1.04633715 8.37504767 -1.0625 6.5625 C-1.07410156 5.55316406 -1.08570313 4.54382813 -1.09765625 3.50390625 C-1 1 -1 1 0 0 Z " fill="#AAA9A9" transform="translate(381,155)"/>
<path d="M0 0 C1.65 0 3.3 0 5 0 C4.67 1.32 4.34 2.64 4 4 C2.68 4 1.36 4 0 4 C0 2.68 0 1.36 0 0 Z " fill="#F45F66" transform="translate(259,26)"/>
<path d="M0 0 C2.64 0 5.28 0 8 0 C7.01 0.33 6.02 0.66 5 1 C5 1.66 5 2.32 5 3 C3.35 3 1.7 3 0 3 C0 2.01 0 1.02 0 0 Z " fill="#D8DCDF" transform="translate(381,0)"/>
</svg>
