<?xml version="1.0" encoding="UTF-8"?>
<svg version="1.1" viewBox="0 0 2000 2000" width="1280" height="1280" xmlns="http://www.w3.org/2000/svg">
<path transform="translate(341,110)" d="m0 0h1507l1 1v1532l-1 1-189 1v214l-3 2h-1504l-1-1-1-27v-1433l1-73h190z" fill="#EF6A00"/>
<path transform="translate(151,327)" d="m0 0h190l1 24v1292l1299 1 17 1 1 1v213l-3 2h-1504l-1-1-1-27v-1433z" fill="#009A98"/>
<path transform="translate(402,899)" d="m0 0h447l1 1v96l-2 1h-161l1 454-1 1h-125l-1-26v-375l1-54h-160l-1-9v-88z" fill="#FEFEFE"/>
<path transform="translate(790,1042)" d="m0 0h136l7 8 12 17 13 19 14 20 11 16 14 20 11 16 4 6 5-5 9-11 10-14 16-21 14-19 16-21 14-19 8-11 2-1h133l-2 4-7 9-8 10-11 14-14 17-11 14-13 16-8 10-13 16-11 14-14 17-11 14-14 17-8 10-12 16 2 5 11 14 10 13 26 34 14 18 15 20 14 18 13 17 14 18 12 16 20 26 8 10v2l-2 1h-132l-4-2-12-17-14-20-12-17-7-10-24-34-14-20-6-9-5 3-9 12-20 26-24 32-10 13-12 16-16 21-3 5-2 1h-131l-2-1 2-4 11-13 12-16 14-17 11-14 13-16 10-13 13-16 21-27 13-16 13-17 10-12 11-14 8-11-2-5-16-21-14-18-15-20-11-14-80-104-12-16-2-2z" fill="#FEFEFE"/>
</svg>
